<?xml version="1.0" encoding="UTF-8" standalone="no"?>
<!DOCTYPE svg PUBLIC "-//W3C//DTD SVG 1.1//EN" "http://www.w3.org/Graphics/SVG/1.1/DTD/svg11.dtd">
<svg width="100%" height="100%" viewBox="0 0 61 73" version="1.1" xmlns="http://www.w3.org/2000/svg" xmlns:xlink="http://www.w3.org/1999/xlink" xml:space="preserve" xmlns:serif="http://www.serif.com/" style="fill-rule:evenodd;clip-rule:evenodd;stroke-linejoin:round;stroke-miterlimit:2;">
    <g transform="matrix(1,0,0,1,-6.09033,-24.8247)">
        <g transform="matrix(1,0,0,1,-11.8926,14.0902)">
            <g transform="matrix(1,0,0,1,-0.381004,0.213834)">
                <rect x="25.158" y="23.433" width="9" height="59.233" style="fill:white;"/>
            </g>
        </g>
        <g transform="matrix(1,0,0,1,-11.8926,14.0902)">
            <path d="M38.321,29.88C36.647,29.98 35.074,27.689 29.277,27.689C23.48,27.689 21.907,29.98 20.233,29.88C19.457,29.833 18.626,29.413 18.238,28.67C17.85,27.927 17.908,27.03 18.388,26.342L29.277,10.735L40.166,26.342C40.646,27.03 40.704,27.927 40.316,28.67C39.928,29.413 39.097,29.833 38.321,29.88Z" style="fill:white;"/>
        </g>
        <g transform="matrix(0.37081,0.928709,-0.928709,0.37081,65.7108,18.5432)">
            <g transform="matrix(1,0,0,1,-0.381004,0.213834)">
                <path d="M49.105,66.436L45.768,74.795C30.68,68.77 23.418,51.216 25.167,23.154L34.149,23.713C33.404,35.681 34.284,45.498 37.042,52.958C39.482,59.557 43.414,64.164 49.105,66.436Z" style="fill:white;"/>
            </g>
        </g>
        <g transform="matrix(0.37081,0.928709,-0.928709,0.37081,65.7108,18.5432)">
            <path d="M38.321,29.88C36.647,29.98 35.074,27.689 29.277,27.689C23.48,27.689 21.907,29.98 20.233,29.88C19.457,29.833 18.626,29.413 18.238,28.67C17.85,27.927 17.908,27.03 18.388,26.342L29.277,10.735L40.166,26.342C40.646,27.03 40.704,27.927 40.316,28.67C39.928,29.413 39.097,29.833 38.321,29.88Z" style="fill:white;"/>
        </g>
    </g>
</svg>
