<?xml version="1.0" encoding="UTF-8" standalone="no"?>
<!DOCTYPE svg PUBLIC "-//W3C//DTD SVG 1.1//EN" "http://www.w3.org/Graphics/SVG/1.1/DTD/svg11.dtd">
<svg width="100%" height="100%" viewBox="0 0 4767 4767" version="1.1" xmlns="http://www.w3.org/2000/svg" xmlns:xlink="http://www.w3.org/1999/xlink" xml:space="preserve" xmlns:serif="http://www.serif.com/" style="fill-rule:evenodd;clip-rule:evenodd;stroke-linejoin:round;stroke-miterlimit:2;">
    <g transform="matrix(1,0,0,1,250.001,250.001)">
        <g transform="matrix(4.16667,0,0,4.16667,0,0)">
            <g transform="matrix(1,0,0,1,1024,373)">
                <path d="M60,278C60,292.364 60.006,306.724 59.915,321.088C59.843,333.505 59.698,345.92 59.362,358.334L59.362,358.336C58.571,387.472 56.724,416.848 51.546,445.661L51.545,445.663C45.779,477.739 36.269,507.558 21.435,536.701C6.66,565.729 -12.644,592.292 -35.674,615.323L-35.677,615.326C-58.708,638.356 -85.271,657.66 -114.299,672.435C-143.442,687.269 -173.261,696.779 -205.337,702.545L-205.339,702.546C-234.152,707.724 -263.528,709.571 -292.664,710.362L-292.666,710.362C-305.08,710.698 -317.495,710.843 -329.912,710.915C-344.276,711.006 -358.636,711 -373,711L-651,711C-665.364,711 -679.724,711.006 -694.088,710.915C-706.505,710.843 -718.92,710.698 -731.334,710.362L-731.336,710.362C-760.471,709.571 -789.849,707.724 -818.66,702.546L-818.662,702.545C-850.739,696.779 -880.559,687.269 -909.702,672.434C-938.728,657.659 -965.293,638.355 -988.323,615.324C-1011.36,592.293 -1030.66,565.73 -1045.43,536.703L-1045.43,536.7C-1060.27,507.557 -1069.78,477.738 -1075.55,445.662C-1080.72,416.849 -1082.57,387.473 -1083.36,358.336C-1083.7,345.921 -1083.84,333.506 -1083.91,321.088C-1084.01,306.724 -1084,292.364 -1084,278L-1084,0C-1084,-14.364 -1084.01,-28.724 -1083.91,-43.088C-1083.84,-55.506 -1083.7,-67.921 -1083.36,-80.336C-1082.57,-109.471 -1080.72,-138.849 -1075.55,-167.661C-1069.78,-199.738 -1060.27,-229.557 -1045.43,-258.7L-1045.43,-258.703C-1030.66,-287.729 -1011.36,-314.293 -988.323,-337.323C-965.293,-360.355 -938.729,-379.658 -909.703,-394.434L-909.7,-394.435C-880.557,-409.268 -850.738,-418.779 -818.661,-424.545C-789.849,-429.724 -760.471,-431.571 -731.336,-432.362L-731.334,-432.362C-718.92,-432.698 -706.505,-432.843 -694.088,-432.915C-679.724,-433.006 -665.364,-433 -651,-433L-373,-433C-358.636,-433 -344.276,-433.006 -329.912,-432.915C-317.495,-432.843 -305.08,-432.698 -292.666,-432.362L-292.664,-432.362C-263.528,-431.571 -234.151,-429.724 -205.338,-424.545C-173.262,-418.779 -143.443,-409.268 -114.3,-394.435L-114.297,-394.434C-85.27,-379.658 -58.707,-360.355 -35.676,-337.323C-12.645,-314.293 6.659,-287.728 21.434,-258.702C36.269,-229.559 45.779,-199.739 51.545,-167.662L51.546,-167.66C56.724,-138.849 58.571,-109.471 59.362,-80.336L59.362,-80.334C59.698,-67.92 59.843,-55.505 59.915,-43.088C60.006,-28.724 60,-14.364 60,0L60,278ZM-60,278L-60,0C-60,-14.117 -59.994,-28.23 -60.083,-42.347L-60.083,-42.381C-60.15,-53.95 -60.281,-65.517 -60.594,-77.083C-61.222,-100.213 -62.45,-123.557 -66.562,-146.431C-70.221,-166.79 -76.093,-185.769 -85.508,-204.266L-85.508,-204.266C-94.568,-222.064 -106.407,-238.349 -120.528,-252.471C-134.65,-266.593 -150.935,-278.431 -168.733,-287.491C-187.23,-296.906 -206.209,-302.778 -226.567,-306.437L-226.569,-306.438C-249.443,-310.55 -272.786,-311.778 -295.917,-312.406C-307.483,-312.719 -319.05,-312.85 -330.619,-312.917L-330.653,-312.917C-344.77,-313.006 -358.883,-313 -373,-313L-651,-313C-665.117,-313 -679.23,-313.006 -693.347,-312.917L-693.381,-312.917C-704.95,-312.85 -716.517,-312.719 -728.083,-312.406C-751.213,-311.778 -774.556,-310.55 -797.43,-306.438L-797.433,-306.437C-817.791,-302.778 -836.77,-296.906 -855.266,-287.492C-873.063,-278.432 -889.349,-266.593 -903.469,-252.472L-903.472,-252.469C-917.593,-238.349 -929.432,-222.063 -938.492,-204.266C-947.906,-185.77 -953.778,-166.791 -957.437,-146.433L-957.438,-146.43C-961.55,-123.557 -962.778,-100.214 -963.405,-77.084L-963.405,-77.079C-963.72,-65.514 -963.85,-53.948 -963.917,-42.381L-963.917,-42.347C-964.006,-28.23 -964,-14.117 -964,0L-964,278C-964,292.117 -964.006,306.23 -963.917,320.347L-963.917,320.381C-963.85,331.948 -963.72,343.514 -963.405,355.079L-963.405,355.084C-962.778,378.215 -961.55,401.557 -957.438,424.431L-957.437,424.433C-953.778,444.791 -947.906,463.77 -938.491,482.267C-929.431,500.065 -917.593,516.35 -903.471,530.472C-889.349,544.593 -873.064,556.432 -855.266,565.492L-855.266,565.492C-836.769,574.907 -817.79,580.779 -797.431,584.438C-774.557,588.55 -751.213,589.778 -728.083,590.406C-716.517,590.719 -704.95,590.85 -693.381,590.917L-693.347,590.917C-679.23,591.006 -665.117,591 -651,591L-373,591C-358.883,591 -344.77,591.006 -330.653,590.917L-330.619,590.917C-319.05,590.85 -307.483,590.719 -295.917,590.406C-272.786,589.778 -249.443,588.55 -226.568,584.438C-206.21,580.779 -187.231,574.907 -168.734,565.492L-168.733,565.491C-150.935,556.432 -134.65,544.592 -120.528,530.472C-106.408,516.35 -94.568,500.065 -85.509,482.267L-85.508,482.266C-76.093,463.769 -70.221,444.79 -66.562,424.432C-62.45,401.557 -61.222,378.214 -60.594,355.083C-60.281,343.517 -60.15,331.95 -60.083,320.381L-60.083,320.347C-59.994,306.23 -60,292.117 -60,278Z" style="fill:white;"/>
            </g>
        </g>
    </g>
</svg>
