<?xml version="1.0" encoding="UTF-8" standalone="no"?>
<!DOCTYPE svg PUBLIC "-//W3C//DTD SVG 1.1//EN" "http://www.w3.org/Graphics/SVG/1.1/DTD/svg11.dtd">
<svg width="100%" height="100%" viewBox="0 0 3300 2200" version="1.1" xmlns="http://www.w3.org/2000/svg" xmlns:xlink="http://www.w3.org/1999/xlink" xml:space="preserve" xmlns:serif="http://www.serif.com/" style="fill-rule:evenodd;clip-rule:evenodd;">
    <g id="Notes">
        <rect id="artboard" x="0" y="0" width="3300" height="2200" style="fill:white;"/>
        <path d="M263,292L3036,292" style="fill:none;fill-rule:nonzero;stroke:black;stroke-width:0.5px;"/>
        <g transform="matrix(1,0,0,1,263,322)">
            <text x="0px" y="0px" style="font-family:'SFPro-Black', 'SF Pro';font-size:13px;">W<tspan x="11.312px " y="0px ">e</tspan>ight/Scale V<tspan x="82.316px " y="0px ">a</tspan>riations</text>
        </g>
        <g transform="matrix(1,0,0,1,559.711,322)">
            <text x="-24.708px" y="0px" style="font-family:'SFPro-Black', 'SF Pro';font-size:13px;">Ultr<tspan x="-5.208px " y="0px ">a</tspan>light</text>
        </g>
        <g transform="matrix(1,0,0,1,856.422,322)">
            <text x="-12.045px" y="0px" style="font-family:'SFPro-Black', 'SF Pro';font-size:13px;">Thin</text>
        </g>
        <g transform="matrix(1,0,0,1,1153.13,322)">
            <text x="-13.778px" y="0px" style="font-family:'SFPro-Black', 'SF Pro';font-size:13px;">Light</text>
        </g>
        <g transform="matrix(1,0,0,1,1449.84,322)">
            <text x="-20.808px" y="0px" style="font-family:'SFPro-Black', 'SF Pro';font-size:13px;">Regular</text>
        </g>
        <g transform="matrix(1,0,0,1,1746.56,322)">
            <text x="-22.315px" y="0px" style="font-family:'SFPro-Black', 'SF Pro';font-size:13px;">Medium</text>
        </g>
        <g transform="matrix(1,0,0,1,2043.27,322)">
            <text x="-25.721px" y="0px" style="font-family:'SFPro-Black', 'SF Pro';font-size:13px;">Semibold</text>
        </g>
        <g transform="matrix(1,0,0,1,2339.98,322)">
            <text x="-12.305px" y="0px" style="font-family:'SFPro-Black', 'SF Pro';font-size:13px;">Bold</text>
        </g>
        <g transform="matrix(1,0,0,1,2636.69,322)">
            <text x="-17.437px" y="0px" style="font-family:'SFPro-Black', 'SF Pro';font-size:13px;">Heavy</text>
        </g>
        <g transform="matrix(1,0,0,1,2933.4,322)">
            <text x="-14.93px" y="0px" style="font-family:'SFPro-Black', 'SF Pro';font-size:13px;">Black</text>
        </g>
        <path d="M263,1903L3036,1903" style="fill:none;fill-rule:nonzero;stroke:black;stroke-width:0.5px;"/>
        <g transform="matrix(1,0,0,1,263,1933)">
            <path d="M9.248,0.83C10.329,0.83 11.344,0.625 12.295,0.215C13.245,-0.195 14.084,-0.765 14.81,-1.494C15.535,-2.223 16.105,-3.063 16.519,-4.014C16.932,-4.964 17.139,-5.977 17.139,-7.051C17.139,-8.125 16.932,-9.137 16.519,-10.088C16.105,-11.038 15.534,-11.878 14.805,-12.607C14.076,-13.337 13.236,-13.906 12.285,-14.316C11.335,-14.727 10.319,-14.932 9.238,-14.932C8.164,-14.932 7.152,-14.727 6.201,-14.316C5.251,-13.906 4.414,-13.337 3.691,-12.607C2.969,-11.878 2.401,-11.038 1.987,-10.088C1.574,-9.137 1.367,-8.125 1.367,-7.051C1.367,-5.977 1.574,-4.964 1.987,-4.014C2.401,-3.063 2.97,-2.223 3.696,-1.494C4.422,-0.765 5.26,-0.195 6.211,0.215C7.161,0.625 8.174,0.83 9.248,0.83ZM9.248,-0.654C8.363,-0.654 7.534,-0.819 6.763,-1.147C5.991,-1.476 5.314,-1.934 4.731,-2.52C4.149,-3.105 3.693,-3.786 3.364,-4.561C3.035,-5.335 2.871,-6.165 2.871,-7.051C2.871,-7.936 3.034,-8.766 3.359,-9.541C3.685,-10.316 4.139,-10.996 4.722,-11.582C5.304,-12.168 5.981,-12.625 6.753,-12.954C7.524,-13.283 8.353,-13.447 9.238,-13.447C10.13,-13.447 10.962,-13.283 11.733,-12.954C12.505,-12.625 13.184,-12.168 13.77,-11.582C14.355,-10.996 14.814,-10.316 15.147,-9.541C15.479,-8.766 15.645,-7.936 15.645,-7.051C15.645,-6.165 15.48,-5.335 15.151,-4.561C14.823,-3.786 14.367,-3.105 13.784,-2.52C13.202,-1.934 12.523,-1.476 11.748,-1.147C10.973,-0.819 10.14,-0.654 9.248,-0.654ZM5.84,-7.041C5.84,-6.826 5.908,-6.652 6.045,-6.519C6.182,-6.385 6.364,-6.318 6.592,-6.318L8.506,-6.318L8.506,-4.395C8.506,-4.173 8.573,-3.994 8.706,-3.857C8.84,-3.721 9.014,-3.652 9.229,-3.652C9.45,-3.652 9.629,-3.721 9.766,-3.857C9.902,-3.994 9.971,-4.173 9.971,-4.395L9.971,-6.318L11.895,-6.318C12.116,-6.318 12.295,-6.385 12.432,-6.519C12.568,-6.652 12.637,-6.826 12.637,-7.041C12.637,-7.262 12.568,-7.441 12.432,-7.578C12.295,-7.715 12.116,-7.783 11.895,-7.783L9.971,-7.783L9.971,-9.697C9.971,-9.925 9.902,-10.107 9.766,-10.244C9.629,-10.381 9.45,-10.449 9.229,-10.449C9.014,-10.449 8.84,-10.381 8.706,-10.244C8.573,-10.107 8.506,-9.925 8.506,-9.697L8.506,-7.783L6.592,-7.783C6.364,-7.783 6.182,-7.715 6.045,-7.578C5.908,-7.441 5.84,-7.262 5.84,-7.041Z" style="fill-rule:nonzero;"/>
        </g>
        <g transform="matrix(1,0,0,1,281.867,1933)">
            <path d="M11.709,2.91C13.07,2.91 14.351,2.65 15.552,2.129C16.753,1.608 17.813,0.889 18.731,-0.029C19.648,-0.947 20.368,-2.007 20.889,-3.208C21.409,-4.409 21.67,-5.69 21.67,-7.051C21.67,-8.411 21.409,-9.692 20.889,-10.894C20.368,-12.095 19.648,-13.154 18.731,-14.072C17.813,-14.99 16.751,-15.71 15.547,-16.23C14.342,-16.751 13.06,-17.012 11.699,-17.012C10.339,-17.012 9.058,-16.751 7.856,-16.23C6.655,-15.71 5.597,-14.99 4.683,-14.072C3.768,-13.154 3.05,-12.095 2.529,-10.894C2.008,-9.692 1.748,-8.411 1.748,-7.051C1.748,-5.69 2.008,-4.409 2.529,-3.208C3.05,-2.007 3.77,-0.947 4.688,-0.029C5.605,0.889 6.665,1.608 7.866,2.129C9.067,2.65 10.348,2.91 11.709,2.91ZM11.709,1.25C10.557,1.25 9.479,1.035 8.477,0.605C7.474,0.176 6.593,-0.418 5.835,-1.177C5.076,-1.935 4.484,-2.816 4.058,-3.818C3.631,-4.821 3.418,-5.898 3.418,-7.051C3.418,-8.203 3.631,-9.281 4.058,-10.283C4.484,-11.286 5.075,-12.168 5.83,-12.93C6.585,-13.691 7.464,-14.286 8.467,-14.712C9.469,-15.138 10.547,-15.352 11.699,-15.352C12.852,-15.352 13.929,-15.138 14.932,-14.712C15.934,-14.286 16.816,-13.691 17.578,-12.93C18.34,-12.168 18.936,-11.286 19.365,-10.283C19.795,-9.281 20.01,-8.203 20.01,-7.051C20.01,-5.898 19.797,-4.821 19.37,-3.818C18.944,-2.816 18.351,-1.935 17.593,-1.177C16.834,-0.418 15.952,0.176 14.946,0.605C13.94,1.035 12.861,1.25 11.709,1.25ZM7.393,-7.041C7.393,-6.807 7.471,-6.615 7.627,-6.465C7.783,-6.315 7.985,-6.24 8.232,-6.24L10.879,-6.24L10.879,-3.574C10.879,-3.333 10.954,-3.136 11.104,-2.983C11.253,-2.83 11.445,-2.754 11.68,-2.754C11.927,-2.754 12.129,-2.83 12.285,-2.983C12.441,-3.136 12.52,-3.333 12.52,-3.574L12.52,-6.24L15.176,-6.24C15.417,-6.24 15.615,-6.315 15.772,-6.465C15.928,-6.615 16.006,-6.807 16.006,-7.041C16.006,-7.288 15.928,-7.489 15.772,-7.642C15.615,-7.795 15.417,-7.871 15.176,-7.871L12.52,-7.871L12.52,-10.518C12.52,-10.771 12.441,-10.975 12.285,-11.128C12.129,-11.281 11.927,-11.357 11.68,-11.357C11.445,-11.357 11.253,-11.281 11.104,-11.128C10.954,-10.975 10.879,-10.771 10.879,-10.518L10.879,-7.871L8.232,-7.871C7.979,-7.871 7.775,-7.795 7.622,-7.642C7.469,-7.489 7.393,-7.288 7.393,-7.041Z" style="fill-rule:nonzero;"/>
        </g>
        <g transform="matrix(1,0,0,1,305.646,1933)">
            <path d="M14.971,5.664C16.364,5.664 17.694,5.448 18.96,5.015C20.226,4.582 21.39,3.975 22.451,3.193C23.512,2.412 24.435,1.491 25.22,0.43C26.004,-0.632 26.613,-1.797 27.046,-3.066C27.479,-4.336 27.695,-5.664 27.695,-7.051C27.695,-8.444 27.479,-9.774 27.046,-11.04C26.613,-12.306 26.004,-13.47 25.22,-14.531C24.435,-15.592 23.512,-16.515 22.451,-17.3C21.39,-18.084 20.225,-18.693 18.955,-19.126C17.686,-19.559 16.354,-19.775 14.961,-19.775C13.568,-19.775 12.238,-19.559 10.972,-19.126C9.705,-18.693 8.543,-18.084 7.485,-17.3C6.427,-16.515 5.506,-15.592 4.722,-14.531C3.937,-13.47 3.33,-12.306 2.9,-11.04C2.471,-9.774 2.256,-8.444 2.256,-7.051C2.256,-5.664 2.472,-4.336 2.905,-3.066C3.338,-1.797 3.945,-0.632 4.727,0.43C5.508,1.491 6.429,2.412 7.49,3.193C8.551,3.975 9.715,4.582 10.981,5.015C12.248,5.448 13.578,5.664 14.971,5.664ZM14.971,3.848C13.766,3.848 12.619,3.664 11.528,3.296C10.438,2.928 9.44,2.412 8.535,1.748C7.63,1.084 6.844,0.298 6.177,-0.61C5.509,-1.519 4.993,-2.518 4.629,-3.608C4.264,-4.699 4.082,-5.846 4.082,-7.051C4.082,-8.262 4.264,-9.412 4.629,-10.503C4.993,-11.593 5.508,-12.593 6.172,-13.501C6.836,-14.409 7.62,-15.195 8.525,-15.859C9.43,-16.523 10.428,-17.038 11.519,-17.402C12.609,-17.767 13.756,-17.949 14.961,-17.949C16.172,-17.949 17.323,-17.767 18.413,-17.402C19.504,-17.038 20.503,-16.523 21.411,-15.859C22.319,-15.195 23.105,-14.409 23.77,-13.501C24.434,-12.593 24.95,-11.593 25.317,-10.503C25.685,-9.412 25.869,-8.262 25.869,-7.051C25.876,-5.846 25.697,-4.699 25.332,-3.608C24.967,-2.518 24.452,-1.519 23.784,-0.61C23.117,0.298 22.329,1.084 21.421,1.748C20.513,2.412 19.513,2.928 18.423,3.296C17.332,3.664 16.182,3.848 14.971,3.848ZM9.453,-7.041C9.453,-6.787 9.539,-6.577 9.712,-6.411C9.884,-6.245 10.104,-6.162 10.371,-6.162L14.063,-6.162L14.063,-2.461C14.063,-2.194 14.146,-1.976 14.312,-1.807C14.477,-1.637 14.687,-1.553 14.941,-1.553C15.215,-1.553 15.436,-1.637 15.605,-1.807C15.775,-1.976 15.859,-2.194 15.859,-2.461L15.859,-6.162L19.561,-6.162C19.827,-6.162 20.046,-6.245 20.215,-6.411C20.384,-6.577 20.469,-6.787 20.469,-7.041C20.469,-7.314 20.384,-7.536 20.215,-7.705C20.046,-7.874 19.827,-7.959 19.561,-7.959L15.859,-7.959L15.859,-11.65C15.859,-11.924 15.775,-12.145 15.605,-12.315C15.436,-12.484 15.215,-12.568 14.941,-12.568C14.687,-12.568 14.477,-12.482 14.312,-12.31C14.146,-12.137 14.063,-11.917 14.063,-11.65L14.063,-7.959L10.371,-7.959C10.098,-7.959 9.876,-7.874 9.707,-7.705C9.538,-7.536 9.453,-7.314 9.453,-7.041Z" style="fill-rule:nonzero;"/>
        </g>
        <g transform="matrix(1,0,0,1,263,1953)">
            <text x="0px" y="0px" style="font-family:'SFPro-Black', 'SF Pro';font-size:13px;">Design V<tspan x="48.109px " y="0px ">a</tspan>riations</text>
        </g>
        <g transform="matrix(1,0,0,1,263,1971)">
            <text x="0px" y="0px" style="font-family:'SFPro-Black', 'SF Pro';font-size:13px;">Symbols ar<tspan x="60.157px " y="0px ">e</tspan> support<tspan x="111.293px " y="0px ">e</tspan>d in up t<tspan x="160.393px " y="0px ">o</tspan> nine weights and thr<tspan x="278.922px " y="0px ">e</tspan>e scales.</text>
        </g>
        <g transform="matrix(1,0,0,1,263,1989)">
            <text x="0px" y="0px" style="font-family:'SFPro-Black', 'SF Pro';font-size:13px;">F<tspan x="6.608px " y="0px ">o</tspan>r optimal lay<tspan x="78.349px " y="0px ">o</tspan>ut with t<tspan x="127.975px 134.507px " y="0px 0px ">ex</tspan>t and other symbols,<tspan x="249.342px 252.008px 258.032px " y="0px 0px 0px "> ve</tspan>rtically align</text>
        </g>
        <g transform="matrix(1,0,0,1,263,2007)">
            <text x="0px" y="0px" style="font-family:'SFPro-Black', 'SF Pro';font-size:13px;">symbols with the adjacent t<tspan x="147.342px 153.874px " y="0px 0px ">ex</tspan>t.</text>
        </g>
        <path d="M776,1919L776,1933" style="fill:none;fill-rule:nonzero;stroke:rgb(0,174,239);stroke-width:0.5px;"/>
        <g transform="matrix(1,0,0,1,776,1933)">
            <path d="M3.311,0.156C3.571,0.156 3.773,0.101 3.916,-0.01C4.059,-0.12 4.176,-0.313 4.268,-0.586L5.527,-4.033L11.289,-4.033L12.549,-0.586C12.64,-0.313 12.757,-0.12 12.9,-0.01C13.044,0.101 13.242,0.156 13.496,0.156C13.756,0.156 13.963,0.085 14.116,-0.059C14.269,-0.202 14.346,-0.397 14.346,-0.645C14.346,-0.794 14.31,-0.97 14.238,-1.172L9.658,-13.369C9.541,-13.669 9.382,-13.893 9.18,-14.043C8.978,-14.193 8.721,-14.268 8.408,-14.268C7.803,-14.268 7.393,-13.971 7.178,-13.379L2.598,-1.162C2.526,-0.96 2.49,-0.785 2.49,-0.635C2.49,-0.387 2.563,-0.194 2.71,-0.054C2.856,0.086 3.057,0.156 3.311,0.156ZM6.006,-5.518L8.379,-12.09L8.428,-12.09L10.801,-5.518L6.006,-5.518Z" style="fill-rule:nonzero;"/>
        </g>
        <path d="M793.197,1919L793.197,1933" style="fill:none;fill-rule:nonzero;stroke:rgb(0,174,239);stroke-width:0.5px;"/>
        <g transform="matrix(1,0,0,1,776,1953)">
            <text x="0px" y="0px" style="font-family:'SFPro-Black', 'SF Pro';font-size:13px;">M<tspan x="10.613px 17.139px 20.827px " y="0px 0px 0px ">arg</tspan>ins</text>
        </g>
        <g transform="matrix(1,0,0,1,776,1971)">
            <text x="0px" y="0px" style="font-family:'SFPro-Black', 'SF Pro';font-size:13px;">L<tspan x="6.627px " y="0px ">e</tspan>ading and tr<tspan x="77.372px " y="0px ">a</tspan>iling mar<tspan x="129.213px " y="0px ">g</tspan>ins on the left and right side of each symbol</text>
        </g>
        <g transform="matrix(1,0,0,1,776,1989)">
            <text x="0px" y="0px" style="font-family:'SFPro-Black', 'SF Pro';font-size:13px;">can be adjust<tspan x="72.09px " y="0px ">e</tspan>d b<tspan x="95.558px " y="0px ">y</tspan> modifying the x<tspan x="187.446px " y="0px ">-</tspan>location of the mar<tspan x="293.04px " y="0px ">g</tspan>in guidelines.</text>
        </g>
        <g transform="matrix(1,0,0,1,776,2007)">
            <text x="0px" y="0px" style="font-family:'SFPro-Black', 'SF Pro';font-size:13px;">Modifications ar<tspan x="86.519px " y="0px ">e</tspan> aut<tspan x="112.944px " y="0px ">o</tspan>matically applied pr<tspan x="224.231px " y="0px ">o</tspan>portionally t<tspan x="294.068px " y="0px ">o</tspan> all</text>
        </g>
        <g transform="matrix(1,0,0,1,776,2025)">
            <text x="0px" y="0px" style="font-family:'SFPro-Black', 'SF Pro';font-size:13px;">scales and weights.</text>
        </g>
        <g transform="matrix(1,0,0,1,1289,1933)">
            <path d="M2.842,1.865L4.541,3.574C4.971,4.01 5.425,4.212 5.903,4.18C6.382,4.147 6.852,3.874 7.314,3.359L18.008,-8.428L17.041,-9.404L6.426,2.275C6.25,2.477 6.073,2.591 5.894,2.617C5.715,2.643 5.508,2.539 5.273,2.305L4.102,1.143C3.867,0.908 3.765,0.701 3.794,0.522C3.823,0.343 3.939,0.163 4.141,-0.02L15.615,-10.82L14.639,-11.787L3.047,-0.898C2.552,-0.443 2.287,0.023 2.251,0.498C2.215,0.973 2.412,1.429 2.842,1.865ZM9.258,-16.328C9.049,-16.126 8.932,-15.895 8.906,-15.635C8.88,-15.374 8.926,-15.146 9.043,-14.951C9.16,-14.769 9.331,-14.632 9.556,-14.541C9.78,-14.45 10.055,-14.443 10.381,-14.522C11.11,-14.691 11.849,-14.761 12.598,-14.731C13.346,-14.702 14.079,-14.453 14.795,-13.984L14.209,-12.529C14.04,-12.113 13.993,-11.75 14.067,-11.44C14.142,-11.131 14.313,-10.84 14.58,-10.566L16.875,-8.252C17.116,-8.005 17.35,-7.861 17.578,-7.822C17.806,-7.783 18.06,-7.79 18.34,-7.842L19.404,-8.037L20.068,-7.363L20.029,-6.807C20.01,-6.559 20.041,-6.331 20.122,-6.123C20.203,-5.915 20.365,-5.69 20.606,-5.449L21.367,-4.707C21.608,-4.466 21.87,-4.341 22.153,-4.331C22.437,-4.321 22.695,-4.434 22.93,-4.668L25.84,-7.588C26.074,-7.822 26.188,-8.078 26.182,-8.354C26.175,-8.631 26.051,-8.89 25.811,-9.131L25.039,-9.893C24.805,-10.133 24.585,-10.298 24.38,-10.386C24.175,-10.474 23.952,-10.508 23.711,-10.488L23.135,-10.44L22.49,-11.074L22.734,-12.197C22.799,-12.477 22.786,-12.739 22.695,-12.983C22.604,-13.228 22.412,-13.496 22.119,-13.789L19.922,-15.977C19.089,-16.803 18.202,-17.424 17.261,-17.837C16.32,-18.25 15.373,-18.465 14.419,-18.481C13.465,-18.498 12.547,-18.324 11.665,-17.959C10.783,-17.594 9.98,-17.051 9.258,-16.328ZM10.752,-15.957C11.357,-16.4 12.007,-16.716 12.7,-16.904C13.394,-17.093 14.095,-17.153 14.805,-17.085C15.514,-17.017 16.203,-16.826 16.87,-16.514C17.537,-16.201 18.148,-15.765 18.701,-15.205L21.133,-12.793C21.25,-12.676 21.323,-12.562 21.353,-12.451C21.382,-12.341 21.377,-12.201 21.338,-12.031L21.016,-10.547L22.52,-9.063L23.506,-9.121C23.63,-9.128 23.724,-9.119 23.789,-9.097C23.854,-9.074 23.936,-9.014 24.033,-8.916L24.609,-8.34L22.168,-5.898L21.592,-6.475C21.494,-6.572 21.432,-6.654 21.406,-6.719C21.38,-6.784 21.37,-6.882 21.377,-7.012L21.445,-7.988L19.951,-9.473L18.428,-9.219C18.265,-9.186 18.136,-9.181 18.042,-9.204C17.948,-9.227 17.839,-9.297 17.715,-9.414L15.713,-11.416C15.583,-11.533 15.509,-11.646 15.493,-11.753C15.477,-11.86 15.508,-12.005 15.586,-12.188L16.465,-14.277C15.684,-15.007 14.805,-15.511 13.828,-15.791C12.852,-16.071 11.855,-16.061 10.84,-15.762C10.762,-15.742 10.711,-15.757 10.689,-15.806C10.666,-15.855 10.687,-15.905 10.752,-15.957Z" style="fill-rule:nonzero;"/>
        </g>
        <g transform="matrix(1,0,0,1,1289,1953)">
            <text x="0px" y="0px" style="font-family:'SFPro-Black', 'SF Pro';font-size:13px;">Exporting</text>
        </g>
        <g transform="matrix(1,0,0,1,1289,1971)">
            <text x="0px" y="0px" style="font-family:'SFPro-Black', 'SF Pro';font-size:13px;">Symbols should be outlined when e<tspan x="191.172px " y="0px ">x</tspan>porting t<tspan x="242.277px " y="0px ">o</tspan> ensur<tspan x="281.938px " y="0px ">e</tspan> the</text>
        </g>
        <g transform="matrix(1,0,0,1,1289,1989)">
            <text x="0px" y="0px" style="font-family:'SFPro-Black', 'SF Pro';font-size:13px;">design is pr<tspan x="61.458px " y="0px ">e</tspan>serv<tspan x="90.854px " y="0px ">e</tspan>d when submitting t<tspan x="203.963px " y="0px ">o</tspan> X<tspan x="221.336px " y="0px ">c</tspan>ode.</text>
        </g>
        <g id="template-version" transform="matrix(1,0,0,1,3036,1933)">
            <text x="-78.559px" y="0px" style="font-family:'SFPro-Black', 'SF Pro';font-size:13px;">T<tspan x="-72.719px " y="0px ">e</tspan>mplat<tspan x="-35.572px " y="0px ">e</tspan> v<tspan x="-20.922px -18.18px -10.677px " y="0px 0px 0px ">.3.</tspan>0</text>
        </g>
        <g transform="matrix(1,0,0,1,3036,1951)">
            <text x="-156.006px" y="0px" style="font-family:'SFPro-Black', 'SF Pro';font-size:13px;">Requir<tspan x="-121.208px " y="0px ">e</tspan>s X<tspan x="-98.027px " y="0px ">c</tspan>ode 13 or gr<tspan x="-27.574px " y="0px ">e</tspan>at<tspan x="-10.664px " y="0px ">e</tspan>r</text>
        </g>
        <g id="descriptive-name" transform="matrix(1,0,0,1,3036,1969)">
            <text x="-406.161px" y="0px" style="font-family:'SFPro-Black', 'SF Pro';font-size:13px;">Gener<tspan x="-372.931px -366.406px -362.68px " y="0px 0px 0px ">ate</tspan>d fr<tspan x="-338.521px " y="0px ">o</tspan>m cust<tspan x="-295.375px " y="0px ">o</tspan>m.point.<tspan x="-245.534px -241.808px " y="0px 0px ">to</tspan>pleft.<tspan x="-208.178px " y="0px ">d</tspan>own.<tspan x="-175.519px " y="0px ">c</tspan>urv<tspan x="-152.128px " y="0px ">e</tspan>dt<tspan x="-134.545px -128.026px " y="0px 0px ">o.</tspan>point.bott<tspan x="-73.214px " y="0px ">o</tspan>mright.up<tspan x="-14.727px " y="0px ">.</tspan>fill</text>
        </g>
        <g transform="matrix(1,0,0,1,3036,1987)">
            <text x="-116.283px" y="0px" style="font-family:'SFPro-Black', 'SF Pro';font-size:13px;">T<tspan x="-110.252px " y="0px ">y</tspan>peset at 100 points</text>
        </g>
        <g transform="matrix(1,0,0,1,263,726)">
            <text x="0px" y="0px" style="font-family:'SFPro-Black', 'SF Pro';font-size:13px;">Small</text>
        </g>
        <g transform="matrix(1,0,0,1,263,1156)">
            <text x="0px" y="0px" style="font-family:'SFPro-Black', 'SF Pro';font-size:13px;">Medium</text>
        </g>
        <g transform="matrix(1,0,0,1,263,1586)">
            <text x="0px" y="0px" style="font-family:'SFPro-Black', 'SF Pro';font-size:13px;">Lar<tspan x="17.031px " y="0px ">g</tspan>e</text>
        </g>
    </g>
    <g id="Guides">
        <g id="H-reference" transform="matrix(1,0,0,1,339,696)">
            <path d="M0.977,0L3.662,0L29.346,-67.139L30.029,-67.139L30.029,-70.459L28.125,-70.459L0.977,0ZM11.67,-24.463L46.973,-24.463L46.24,-26.709L12.451,-26.709L11.67,-24.463ZM55.127,0L57.764,0L30.615,-70.459L29.443,-70.459L29.443,-67.139L55.127,0Z" style="fill:rgb(39,170,225);fill-rule:nonzero;"/>
        </g>
        <path id="Baseline-S" d="M263,696L3036,696" style="fill:none;fill-rule:nonzero;stroke:rgb(39,170,225);stroke-width:0.5px;"/>
        <path id="Capline-S" d="M263,625.541L3036,625.541" style="fill:none;fill-rule:nonzero;stroke:rgb(39,170,225);stroke-width:0.5px;"/>
        <g id="H-reference1" serif:id="H-reference" transform="matrix(1,0,0,1,339,1126)">
            <path d="M0.977,0L3.662,0L29.346,-67.139L30.029,-67.139L30.029,-70.459L28.125,-70.459L0.977,0ZM11.67,-24.463L46.973,-24.463L46.24,-26.709L12.451,-26.709L11.67,-24.463ZM55.127,0L57.764,0L30.615,-70.459L29.443,-70.459L29.443,-67.139L55.127,0Z" style="fill:rgb(39,170,225);fill-rule:nonzero;"/>
        </g>
        <path id="Baseline-M" d="M263,1126L3036,1126" style="fill:none;fill-rule:nonzero;stroke:rgb(39,170,225);stroke-width:0.5px;"/>
        <path id="Capline-M" d="M263,1055.54L3036,1055.54" style="fill:none;fill-rule:nonzero;stroke:rgb(39,170,225);stroke-width:0.5px;"/>
        <g id="H-reference2" serif:id="H-reference" transform="matrix(1,0,0,1,339,1556)">
            <path d="M0.977,0L3.662,0L29.346,-67.139L30.029,-67.139L30.029,-70.459L28.125,-70.459L0.977,0ZM11.67,-24.463L46.973,-24.463L46.24,-26.709L12.451,-26.709L11.67,-24.463ZM55.127,0L57.764,0L30.615,-70.459L29.443,-70.459L29.443,-67.139L55.127,0Z" style="fill:rgb(39,170,225);fill-rule:nonzero;"/>
        </g>
        <path id="Baseline-L" d="M263,1556L3036,1556" style="fill:none;fill-rule:nonzero;stroke:rgb(39,170,225);stroke-width:0.5px;"/>
        <path id="Capline-L" d="M263,1485.54L3036,1485.54" style="fill:none;fill-rule:nonzero;stroke:rgb(39,170,225);stroke-width:0.5px;"/>
        <path id="left-margin-Regular-M" d="M1394.14,1030.78L1394.14,1150.12" style="fill:none;fill-rule:nonzero;stroke:rgb(0,174,239);stroke-width:0.5px;"/>
        <path id="right-margin-Regular-M" d="M1505.55,1030.78L1505.55,1150.12" style="fill:none;fill-rule:nonzero;stroke:rgb(0,174,239);stroke-width:0.5px;"/>
    </g>
    <g id="Symbols">
        <g id="Black-L" transform="matrix(1,0,0,1,2855.33,1556)">
            <g transform="matrix(1,0,0,1,-2855.33,-1556)">
                <path d="M2897,1546.06C2901.64,1546.06 2905.88,1547.2 2909.72,1549.47C2913.55,1551.73 2916.6,1554.78 2918.87,1558.59C2921.14,1562.41 2922.27,1566.66 2922.27,1571.34C2922.27,1575.95 2921.14,1580.17 2918.87,1583.99C2916.6,1587.82 2913.55,1590.86 2909.72,1593.12C2905.88,1595.38 2901.64,1596.51 2897,1596.51C2892.39,1596.51 2888.17,1595.38 2884.34,1593.12C2880.52,1590.86 2877.48,1587.82 2875.22,1583.99C2872.96,1580.17 2871.83,1575.95 2871.83,1571.34C2871.83,1566.66 2872.96,1562.41 2875.22,1558.59C2877.48,1554.78 2880.52,1551.73 2884.34,1549.47C2888.17,1547.2 2892.39,1546.06 2897,1546.06Z" style="fill-rule:nonzero;"/>
            </g>
            <g transform="matrix(1,0,0,1,-2855.33,-1550)">
                <path d="M2969.8,1496.39C2965.12,1496.39 2960.87,1495.26 2957.06,1493C2953.24,1490.74 2950.2,1487.69 2947.93,1483.85C2945.66,1480 2944.53,1475.77 2944.53,1471.14C2944.53,1466.51 2945.66,1462.29 2947.93,1458.47C2950.2,1454.66 2953.24,1451.62 2957.06,1449.35C2960.87,1447.08 2965.12,1445.95 2969.8,1445.95C2974.42,1445.95 2978.63,1447.08 2982.46,1449.35C2986.28,1451.62 2989.32,1454.66 2991.58,1458.47C2993.85,1462.29 2994.97,1466.51 2994.97,1471.14C2994.97,1475.77 2993.85,1480 2991.58,1483.85C2989.32,1487.69 2986.28,1490.74 2982.46,1493C2978.63,1495.26 2974.42,1496.39 2969.8,1496.39Z" style="fill-rule:nonzero;"/>
            </g>
            <g transform="matrix(1,0,0,1,-2928.03,-1556)">
                <path d="M2969.8,1496.39C2965.12,1496.39 2960.87,1495.26 2957.06,1493C2953.24,1490.74 2950.2,1487.69 2947.93,1483.85C2945.66,1480 2944.53,1475.77 2944.53,1471.14C2944.53,1466.51 2945.66,1462.29 2947.93,1458.47C2950.2,1454.66 2953.24,1451.62 2957.06,1449.35C2960.87,1447.08 2965.12,1445.95 2969.8,1445.95C2974.42,1445.95 2978.63,1447.08 2982.46,1449.35C2986.28,1451.62 2989.32,1454.66 2991.58,1458.47C2993.85,1462.29 2994.97,1466.51 2994.97,1471.14C2994.97,1475.77 2993.85,1480 2991.58,1483.85C2989.32,1487.69 2986.28,1490.74 2982.46,1493C2978.63,1495.26 2974.42,1496.39 2969.8,1496.39Z" style="fill-rule:nonzero;"/>
            </g>
            <g transform="matrix(1,0,0,1,-2855.33,-1556)">
                <path d="M2979.27,1501.12C2979.27,1517.92 2970.32,1531.53 2952.19,1532.53L2920.08,1534.09C2911.06,1534.65 2906.55,1540.67 2906.55,1547.34L2906.55,1554.98L2887.54,1554.98L2887.54,1547.34C2887.54,1530.54 2896.33,1516.81 2914.61,1515.95L2946.78,1514.37C2955.72,1513.78 2960.28,1507.82 2960.28,1501.12L2960.28,1493.48L2979.27,1493.48L2979.27,1501.12Z" style="fill-rule:nonzero;"/>
            </g>
            <g transform="matrix(1,0,0,1,-2855.33,-1556)">
                <path d="M2906.55,1560.58L2906.55,1487.99L2887.55,1487.99L2887.55,1560.58L2906.55,1560.58Z"/>
            </g>
        </g>
        <g id="Heavy-L" transform="matrix(1,0,0,1,2560.15,1556)">
            <g transform="matrix(1,0,0,1,-2560.15,-1556)">
                <path d="M2600.59,1546.76C2605.01,1546.76 2609.05,1547.84 2612.69,1550C2616.33,1552.16 2619.23,1555.06 2621.39,1558.68C2623.55,1562.31 2624.63,1566.35 2624.63,1570.81C2624.63,1575.19 2623.55,1579.2 2621.39,1582.84C2619.23,1586.47 2616.33,1589.37 2612.69,1591.52C2609.05,1593.66 2605.01,1594.74 2600.59,1594.74C2596.2,1594.74 2592.19,1593.66 2588.55,1591.52C2584.91,1589.37 2582.02,1586.47 2579.87,1582.84C2577.72,1579.2 2576.65,1575.19 2576.65,1570.81C2576.65,1566.35 2577.72,1562.31 2579.87,1558.68C2582.02,1555.06 2584.91,1552.16 2588.55,1550C2592.19,1547.84 2596.2,1546.76 2600.59,1546.76Z" style="fill-rule:nonzero;"/>
            </g>
            <g transform="matrix(1,0,0,1,-2560.15,-1549)">
                <path d="M2672.81,1495.74C2668.36,1495.74 2664.32,1494.66 2660.69,1492.51C2657.06,1490.36 2654.16,1487.46 2652.01,1483.81C2649.85,1480.15 2648.77,1476.13 2648.77,1471.72C2648.77,1467.32 2649.85,1463.3 2652.01,1459.67C2654.16,1456.05 2657.06,1453.15 2660.69,1450.99C2664.32,1448.84 2668.36,1447.76 2672.81,1447.76C2677.19,1447.76 2681.2,1448.84 2684.84,1450.99C2688.48,1453.15 2691.37,1456.05 2693.52,1459.67C2695.67,1463.3 2696.75,1467.32 2696.75,1471.72C2696.75,1476.13 2695.67,1480.15 2693.52,1483.81C2691.37,1487.46 2688.48,1490.36 2684.84,1492.51C2681.2,1494.66 2677.19,1495.74 2672.81,1495.74Z" style="fill-rule:nonzero;"/>
            </g>
            <g transform="matrix(1,0,0,1,-2632.27,-1556)">
                <path d="M2672.81,1495.74C2668.36,1495.74 2664.32,1494.66 2660.69,1492.51C2657.06,1490.36 2654.16,1487.46 2652.01,1483.81C2649.85,1480.15 2648.77,1476.13 2648.77,1471.72C2648.77,1467.32 2649.85,1463.3 2652.01,1459.67C2654.16,1456.05 2657.06,1453.15 2660.69,1450.99C2664.32,1448.84 2668.36,1447.76 2672.81,1447.76C2677.19,1447.76 2681.2,1448.84 2684.84,1450.99C2688.48,1453.15 2691.37,1456.05 2693.52,1459.67C2695.67,1463.3 2696.75,1467.32 2696.75,1471.72C2696.75,1476.13 2695.67,1480.15 2693.52,1483.81C2691.37,1487.46 2688.48,1490.36 2684.84,1492.51C2681.2,1494.66 2677.19,1495.74 2672.81,1495.74Z" style="fill-rule:nonzero;"/>
            </g>
            <g transform="matrix(1,0,0,1,-2560.15,-1556)">
                <path d="M2681.15,1502.36C2681.15,1518.15 2672.35,1531.72 2655.16,1532.3L2623.08,1533.21C2613.55,1533.66 2609.02,1540.23 2609.02,1547.14L2609.02,1554.04L2592.24,1554.04L2592.24,1547.14C2592.24,1531.35 2600.61,1517.98 2618.24,1517.23L2650.37,1516.28C2659.77,1515.78 2664.41,1509.31 2664.41,1502.36L2664.41,1495.46L2681.15,1495.46L2681.15,1502.36Z" style="fill-rule:nonzero;"/>
            </g>
            <g transform="matrix(1,0,0,1,-2560.15,-1556)">
                <path d="M2609.04,1559.66L2609.04,1488.63L2592.24,1488.63L2592.24,1559.66L2609.04,1559.66Z"/>
            </g>
        </g>
        <g id="Bold-L" transform="matrix(1,0,0,1,2265.26,1556)">
            <g transform="matrix(1,0,0,1,-2265.26,-1556)">
                <path d="M2304.2,1547.61C2308.35,1547.61 2312.13,1548.63 2315.53,1550.65C2318.94,1552.68 2321.65,1555.39 2323.68,1558.79C2325.7,1562.19 2326.72,1565.98 2326.72,1570.15C2326.72,1574.26 2325.7,1578.02 2323.68,1581.42C2321.65,1584.82 2318.94,1587.53 2315.53,1589.54C2312.13,1591.56 2308.35,1592.56 2304.2,1592.56C2300.09,1592.56 2296.33,1591.56 2292.92,1589.54C2289.5,1587.53 2286.79,1584.82 2284.78,1581.42C2282.76,1578.02 2281.76,1574.26 2281.76,1570.15C2281.76,1565.98 2282.76,1562.19 2284.78,1558.79C2286.79,1555.39 2289.5,1552.68 2292.92,1550.65C2296.33,1548.63 2300.09,1547.61 2304.2,1547.61Z" style="fill-rule:nonzero;"/>
            </g>
            <g transform="matrix(1,0,0,1,-2265.26,-1548)">
                <path d="M2375.77,1494.96C2371.6,1494.96 2367.82,1493.95 2364.42,1491.94C2361.02,1489.92 2358.3,1487.21 2356.28,1483.79C2354.25,1480.36 2353.24,1476.59 2353.24,1472.46C2353.24,1468.33 2354.25,1464.56 2356.28,1461.17C2358.3,1457.77 2361.02,1455.06 2364.42,1453.04C2367.82,1451.01 2371.6,1450 2375.77,1450C2379.87,1450 2383.63,1451.01 2387.04,1453.04C2390.45,1455.06 2393.16,1457.77 2395.18,1461.17C2397.19,1464.56 2398.2,1468.33 2398.2,1472.46C2398.2,1476.59 2397.19,1480.36 2395.18,1483.79C2393.16,1487.21 2390.45,1489.92 2387.04,1491.94C2383.63,1493.95 2379.87,1494.96 2375.77,1494.96Z" style="fill-rule:nonzero;"/>
            </g>
            <g transform="matrix(1,0,0,1,-2336.74,-1556)">
                <path d="M2375.77,1494.96C2371.6,1494.96 2367.82,1493.95 2364.42,1491.94C2361.02,1489.92 2358.3,1487.21 2356.28,1483.79C2354.25,1480.36 2353.24,1476.59 2353.24,1472.46C2353.24,1468.33 2354.25,1464.56 2356.28,1461.17C2358.3,1457.77 2361.02,1455.06 2364.42,1453.04C2367.82,1451.01 2371.6,1450 2375.77,1450C2379.87,1450 2383.63,1451.01 2387.04,1453.04C2390.45,1455.06 2393.16,1457.77 2395.18,1461.17C2397.19,1464.56 2398.2,1468.33 2398.2,1472.46C2398.2,1476.59 2397.19,1480.36 2395.18,1483.79C2393.16,1487.21 2390.45,1489.92 2387.04,1491.94C2383.63,1493.95 2379.87,1494.96 2375.77,1494.96Z" style="fill-rule:nonzero;"/>
            </g>
            <g transform="matrix(1,0,0,1,-2265.26,-1556)">
                <path d="M2382.72,1503.63C2382.72,1518.21 2374.5,1531.37 2358.09,1531.76L2325.92,1532.14C2316.08,1532.38 2311.23,1539.71 2311.23,1546.95L2311.23,1553.04L2297.24,1553.04L2297.24,1546.95C2297.24,1532.36 2305.5,1519.25 2321.87,1518.84L2354.07,1518.42C2363.86,1518.04 2368.78,1510.93 2368.78,1503.63L2368.78,1497.54L2382.72,1497.54L2382.72,1503.63Z" style="fill-rule:nonzero;"/>
            </g>
            <g transform="matrix(1,0,0,1,-2265.26,-1556)">
                <path d="M2311.24,1557.3L2311.24,1490.26L2297.24,1490.26L2297.24,1557.3L2311.24,1557.3Z"/>
            </g>
        </g>
        <g id="Semibold-L" transform="matrix(1,0,0,1,1969.81,1556)">
            <g transform="matrix(1,0,0,1,-1969.81,-1556)">
                <path d="M2007.72,1548.2C2011.68,1548.2 2015.28,1549.17 2018.52,1551.1C2021.76,1553.04 2024.35,1555.63 2026.29,1558.87C2028.22,1562.11 2029.19,1565.72 2029.19,1569.69C2029.19,1573.62 2028.22,1577.2 2026.29,1580.44C2024.35,1583.68 2021.76,1586.26 2018.52,1588.18C2015.28,1590.1 2011.68,1591.06 2007.72,1591.06C2003.79,1591.06 2000.21,1590.1 1996.95,1588.18C1993.7,1586.26 1991.11,1583.68 1989.19,1580.44C1987.27,1577.2 1986.31,1573.62 1986.31,1569.69C1986.31,1565.72 1987.27,1562.11 1989.19,1558.87C1991.11,1555.63 1993.7,1553.04 1996.95,1551.1C2000.21,1549.17 2003.79,1548.2 2007.72,1548.2Z" style="fill-rule:nonzero;"/>
            </g>
            <g transform="matrix(1,0,0,1,-1969.81,-1548)">
                <path d="M2078.84,1494.42C2074.87,1494.42 2071.26,1493.46 2068.01,1491.54C2064.77,1489.62 2062.19,1487.03 2060.25,1483.77C2058.32,1480.51 2057.35,1476.91 2057.35,1472.97C2057.35,1469.02 2058.32,1465.43 2060.25,1462.2C2062.19,1458.96 2064.77,1456.38 2068.01,1454.44C2071.26,1452.51 2074.87,1451.54 2078.84,1451.54C2082.75,1451.54 2086.33,1452.51 2089.59,1454.44C2092.84,1456.38 2095.43,1458.96 2097.35,1462.2C2099.27,1465.43 2100.23,1469.02 2100.23,1472.97C2100.23,1476.91 2099.27,1480.51 2097.35,1483.77C2095.43,1487.03 2092.84,1489.62 2089.59,1491.54C2086.33,1493.46 2082.75,1494.42 2078.84,1494.42Z" style="fill-rule:nonzero;"/>
            </g>
            <g transform="matrix(1,0,0,1,-2040.85,-1556)">
                <path d="M2078.84,1494.42C2074.87,1494.42 2071.26,1493.46 2068.01,1491.54C2064.77,1489.62 2062.19,1487.03 2060.25,1483.77C2058.32,1480.51 2057.35,1476.91 2057.35,1472.97C2057.35,1469.02 2058.32,1465.43 2060.25,1462.2C2062.19,1458.96 2064.77,1456.38 2068.01,1454.44C2071.26,1452.51 2074.87,1451.54 2078.84,1451.54C2082.75,1451.54 2086.33,1452.51 2089.59,1454.44C2092.84,1456.38 2095.43,1458.96 2097.35,1462.2C2099.27,1465.43 2100.23,1469.02 2100.23,1472.97C2100.23,1476.91 2099.27,1480.51 2097.35,1483.77C2095.43,1487.03 2092.84,1489.62 2089.59,1491.54C2086.33,1493.46 2082.75,1494.42 2078.84,1494.42Z" style="fill-rule:nonzero;"/>
            </g>
            <g transform="matrix(1,0,0,1,-1969.81,-1556)">
                <path d="M2084.83,1503.81C2084.83,1517.56 2076.85,1529.89 2061.14,1530.7L2028.91,1531.4C2018.86,1531.69 2013.78,1539.34 2013.78,1546.81L2013.78,1552.35L2001.71,1552.35L2001.71,1546.81C2001.71,1533.06 2009.75,1520.49 2025.39,1519.95L2057.65,1519.2C2067.57,1518.76 2072.82,1511.35 2072.82,1503.81L2072.82,1498.28L2084.83,1498.28L2084.83,1503.81Z" style="fill-rule:nonzero;"/>
            </g>
            <g transform="matrix(1,0,0,1,-1969.81,-1556)">
                <path d="M2013.8,1561.38L2013.8,1488.42L2001.7,1488.42L2001.7,1561.38L2013.8,1561.38Z"/>
            </g>
        </g>
        <g id="Medium-L" transform="matrix(1,0,0,1,1674.06,1556)">
            <g transform="matrix(1,0,0,1,-1674.06,-1556)">
                <path d="M1711.18,1548.65C1715,1548.65 1718.47,1549.58 1721.59,1551.44C1724.7,1553.31 1727.2,1555.8 1729.06,1558.92C1730.93,1562.05 1731.86,1565.52 1731.86,1569.35C1731.86,1573.13 1730.93,1576.58 1729.06,1579.69C1727.2,1582.82 1724.7,1585.3 1721.59,1587.15C1718.47,1589 1715,1589.93 1711.18,1589.93C1707.4,1589.93 1703.95,1589 1700.81,1587.15C1697.67,1585.3 1695.18,1582.82 1693.33,1579.69C1691.48,1576.58 1690.56,1573.13 1690.56,1569.35C1690.56,1565.52 1691.48,1562.05 1693.33,1558.92C1695.18,1555.8 1697.67,1553.31 1700.81,1551.44C1703.95,1549.58 1707.4,1548.65 1711.18,1548.65Z" style="fill-rule:nonzero;"/>
            </g>
            <g transform="matrix(1,0,0,1,-1674.06,-1548)">
                <path d="M1781.97,1494.02C1778.14,1494.02 1774.66,1493.09 1771.54,1491.24C1768.42,1489.39 1765.93,1486.9 1764.06,1483.76C1762.2,1480.62 1761.27,1477.15 1761.27,1473.36C1761.27,1469.55 1762.2,1466.09 1764.06,1462.98C1765.93,1459.87 1768.42,1457.38 1771.54,1455.51C1774.66,1453.65 1778.14,1452.71 1781.97,1452.71C1785.73,1452.71 1789.18,1453.65 1792.31,1455.51C1795.45,1457.38 1797.94,1459.87 1799.79,1462.98C1801.64,1466.09 1802.57,1469.55 1802.57,1473.36C1802.57,1477.15 1801.64,1480.62 1799.79,1483.76C1797.94,1486.9 1795.45,1489.39 1792.31,1491.24C1789.18,1493.09 1785.73,1494.02 1781.97,1494.02Z" style="fill-rule:nonzero;"/>
            </g>
            <g transform="matrix(1,0,0,1,-1744.77,-1556)">
                <path d="M1781.97,1494.02C1778.14,1494.02 1774.66,1493.09 1771.54,1491.24C1768.42,1489.39 1765.93,1486.9 1764.06,1483.76C1762.2,1480.62 1761.27,1477.15 1761.27,1473.36C1761.27,1469.55 1762.2,1466.09 1764.06,1462.98C1765.93,1459.87 1768.42,1457.38 1771.54,1455.51C1774.66,1453.65 1778.14,1452.71 1781.97,1452.71C1785.73,1452.71 1789.18,1453.65 1792.31,1455.51C1795.45,1457.38 1797.94,1459.87 1799.79,1462.98C1801.64,1466.09 1802.57,1469.55 1802.57,1473.36C1802.57,1477.15 1801.64,1480.62 1799.79,1483.76C1797.94,1486.9 1795.45,1489.39 1792.31,1491.24C1789.18,1493.09 1785.73,1494.02 1781.97,1494.02Z" style="fill-rule:nonzero;"/>
            </g>
            <g transform="matrix(1,0,0,1,-1674.06,-1556)">
                <path d="M1787.22,1503.96C1787.22,1517.07 1779.63,1529.25 1764.25,1529.89L1731.97,1530.84C1721.5,1531.35 1716.52,1539.07 1716.52,1546.71L1716.52,1551.82L1705.9,1551.82L1705.9,1546.71C1705.9,1533.6 1713.54,1521.43 1728.87,1520.79L1761.16,1519.8C1771.42,1519.25 1776.68,1511.67 1776.68,1503.96L1776.68,1498.84L1787.22,1498.84L1787.22,1503.96Z" style="fill-rule:nonzero;"/>
            </g>
            <g transform="matrix(1,0,0,1,-1674.06,-1556)">
                <path d="M1716.51,1554.38L1716.51,1489.95L1705.91,1489.95L1705.91,1554.38L1716.51,1554.38Z"/>
            </g>
        </g>
        <g id="Regular-L" transform="matrix(1,0,0,1,1378.59,1556)">
            <g transform="matrix(1,0,0,1,-1378.59,-1556)">
                <path d="M1414.69,1549.23C1418.32,1549.23 1421.62,1550.12 1424.57,1551.89C1427.53,1553.66 1429.89,1556.03 1431.67,1559C1433.44,1561.96 1434.33,1565.27 1434.33,1568.9C1434.33,1572.49 1433.44,1575.77 1431.67,1578.73C1429.89,1581.69 1427.53,1584.05 1424.57,1585.81C1421.62,1587.56 1418.32,1588.44 1414.69,1588.44C1411.1,1588.44 1407.81,1587.56 1404.83,1585.81C1401.85,1584.05 1399.48,1581.69 1397.72,1578.73C1395.96,1575.77 1395.09,1572.49 1395.09,1568.9C1395.09,1565.27 1395.96,1561.96 1397.72,1559C1399.48,1556.03 1401.85,1553.66 1404.83,1551.89C1407.81,1550.12 1411.1,1549.23 1414.69,1549.23Z" style="fill-rule:nonzero;"/>
            </g>
            <g transform="matrix(1,0,0,1,-1378.59,-1548)">
                <path d="M1485.03,1493.49C1481.4,1493.49 1478.1,1492.61 1475.13,1490.85C1472.17,1489.09 1469.8,1486.72 1468.02,1483.74C1466.25,1480.76 1465.36,1477.46 1465.36,1473.86C1465.36,1470.24 1466.25,1466.95 1468.02,1464C1469.8,1461.04 1472.17,1458.68 1475.13,1456.9C1478.1,1455.13 1481.4,1454.24 1485.03,1454.24C1488.6,1454.24 1491.88,1455.13 1494.86,1456.9C1497.84,1458.68 1500.21,1461.04 1501.97,1464C1503.73,1466.95 1504.6,1470.24 1504.6,1473.86C1504.6,1477.46 1503.73,1480.76 1501.97,1483.74C1500.21,1486.72 1497.84,1489.09 1494.86,1490.85C1491.88,1492.61 1488.6,1493.49 1485.03,1493.49Z" style="fill-rule:nonzero;"/>
            </g>
            <g transform="matrix(1,0,0,1,-1448.86,-1556)">
                <path d="M1485.03,1493.49C1481.4,1493.49 1478.1,1492.61 1475.13,1490.85C1472.17,1489.09 1469.8,1486.72 1468.02,1483.74C1466.25,1480.76 1465.36,1477.46 1465.36,1473.86C1465.36,1470.24 1466.25,1466.95 1468.02,1464C1469.8,1461.04 1472.17,1458.68 1475.13,1456.9C1478.1,1455.13 1481.4,1454.24 1485.03,1454.24C1488.6,1454.24 1491.88,1455.13 1494.86,1456.9C1497.84,1458.68 1500.21,1461.04 1501.97,1464C1503.73,1466.95 1504.6,1470.24 1504.6,1473.86C1504.6,1477.46 1503.73,1480.76 1501.97,1483.74C1500.21,1486.72 1497.84,1489.09 1494.86,1490.85C1491.88,1492.61 1488.6,1493.49 1485.03,1493.49Z" style="fill-rule:nonzero;"/>
            </g>
            <g transform="matrix(1,0,0,1,-1378.59,-1556)">
                <path d="M1489.34,1504.14C1489.34,1516.43 1481.95,1528.15 1467.3,1528.84L1434.96,1530.11C1424.06,1530.74 1419.07,1538.71 1419.07,1546.57L1419.07,1551.14L1410.35,1551.14L1410.35,1546.57C1410.35,1534.29 1417.9,1522.72 1432.39,1521.89L1464.73,1520.57C1475.41,1519.97 1480.7,1512.09 1480.7,1504.14L1480.7,1499.57L1489.34,1499.57L1489.34,1504.14Z" style="fill-rule:nonzero;"/>
            </g>
            <g transform="matrix(1,0,0,1,-1378.59,-1556)">
                <path d="M1419.06,1554.38L1419.06,1489.95L1410.36,1489.95L1410.36,1554.38L1419.06,1554.38Z"/>
            </g>
        </g>
        <g id="Light-L" transform="matrix(1,0,0,1,1082.77,1556)">
            <g transform="matrix(1,0,0,1,-1082.77,-1556)">
                <path d="M1117.96,1549.74C1121.41,1549.74 1124.54,1550.58 1127.35,1552.27C1130.16,1553.95 1132.41,1556.21 1134.09,1559.04C1135.78,1561.87 1136.62,1565.01 1136.62,1568.45C1136.62,1571.89 1135.78,1575.01 1134.09,1577.81C1132.41,1580.62 1130.16,1582.86 1127.35,1584.53C1124.54,1586.21 1121.41,1587.05 1117.96,1587.05C1114.53,1587.05 1111.39,1586.21 1108.55,1584.53C1105.71,1582.86 1103.45,1580.62 1101.78,1577.81C1100.1,1575.01 1099.27,1571.89 1099.27,1568.45C1099.27,1565.01 1100.1,1561.87 1101.78,1559.04C1103.45,1556.21 1105.71,1553.95 1108.55,1552.27C1111.39,1550.58 1114.53,1549.74 1117.96,1549.74Z" style="fill-rule:nonzero;"/>
            </g>
            <g transform="matrix(1,0,0,1,-1082.77,-1548)">
                <path d="M1188.35,1493.16C1184.91,1493.16 1181.77,1492.32 1178.94,1490.64C1176.11,1488.97 1173.86,1486.71 1172.17,1483.87C1170.49,1481.04 1169.64,1477.9 1169.64,1474.48C1169.64,1471.02 1170.49,1467.89 1172.17,1465.08C1173.86,1462.26 1176.11,1460.02 1178.94,1458.33C1181.77,1456.64 1184.91,1455.8 1188.35,1455.8C1191.76,1455.8 1194.88,1456.64 1197.71,1458.33C1200.55,1460.02 1202.81,1462.26 1204.49,1465.08C1206.16,1467.89 1207,1471.02 1207,1474.48C1207,1477.9 1206.16,1481.04 1204.49,1483.87C1202.81,1486.71 1200.55,1488.97 1197.71,1490.64C1194.88,1492.32 1191.76,1493.16 1188.35,1493.16Z" style="fill-rule:nonzero;"/>
            </g>
            <g transform="matrix(1,0,0,1,-1153.15,-1556)">
                <path d="M1188.35,1493.16C1184.91,1493.16 1181.77,1492.32 1178.94,1490.64C1176.11,1488.97 1173.86,1486.71 1172.17,1483.87C1170.49,1481.04 1169.64,1477.9 1169.64,1474.48C1169.64,1471.02 1170.49,1467.89 1172.17,1465.08C1173.86,1462.26 1176.11,1460.02 1178.94,1458.33C1181.77,1456.64 1184.91,1455.8 1188.35,1455.8C1191.76,1455.8 1194.88,1456.64 1197.71,1458.33C1200.55,1460.02 1202.81,1462.26 1204.49,1465.08C1206.16,1467.89 1207,1471.02 1207,1474.48C1207,1477.9 1206.16,1481.04 1204.49,1483.87C1202.81,1486.71 1200.55,1488.97 1197.71,1490.64C1194.88,1492.32 1191.76,1493.16 1188.35,1493.16Z" style="fill-rule:nonzero;"/>
            </g>
            <g transform="matrix(1,0,0,1,-1082.77,-1556)">
                <path d="M1191.63,1504.2C1191.63,1515.79 1184.65,1526.63 1170.7,1527.69L1137.52,1529.48C1126.74,1530.48 1121.32,1538.48 1121.32,1546.7L1121.32,1551.53L1114.64,1551.53L1114.64,1546.7C1114.64,1535.11 1121.64,1524.1 1135.57,1523.18L1168.75,1521.37C1179.58,1520.38 1185.02,1512.49 1185.02,1504.2L1185.02,1499.37L1191.63,1499.37L1191.63,1504.2Z" style="fill-rule:nonzero;"/>
            </g>
            <g transform="matrix(1,0,0,1,-1082.77,-1556)">
                <path d="M1121.24,1554.38L1121.24,1489.95L1114.64,1489.95L1114.64,1554.38L1121.24,1554.38Z"/>
            </g>
        </g>
        <g id="Thin-L" transform="matrix(1,0,0,1,787.241,1556)">
            <g transform="matrix(1,0,0,1,-787.241,-1556)">
                <path d="M821.24,1550.42C824.431,1550.42 827.338,1551.2 829.959,1552.77C832.58,1554.34 834.675,1556.45 836.243,1559.1C837.811,1561.74 838.595,1564.66 838.595,1567.85C838.595,1571.09 837.811,1574.01 836.243,1576.61C834.675,1579.2 832.58,1581.28 829.959,1582.85C827.338,1584.42 824.431,1585.2 821.24,1585.2C818.001,1585.2 815.058,1584.42 812.41,1582.85C809.761,1581.28 807.653,1579.2 806.087,1576.61C804.52,1574.01 803.737,1571.09 803.737,1567.85C803.737,1564.66 804.52,1561.74 806.087,1559.1C807.653,1556.45 809.761,1554.34 812.41,1552.77C815.058,1551.2 818.001,1550.42 821.24,1550.42Z" style="fill-rule:nonzero;"/>
            </g>
            <g transform="matrix(1,0,0,1,-787.241,-1548)">
                <path d="M891.682,1492.72C888.491,1492.72 885.571,1491.94 882.924,1490.37C880.277,1488.81 878.169,1486.7 876.602,1484.05C875.034,1481.4 874.25,1478.48 874.25,1475.29C874.25,1472.05 875.034,1469.12 876.602,1466.5C878.169,1463.88 880.277,1461.78 882.924,1460.22C885.571,1458.65 888.491,1457.86 891.682,1457.86C894.869,1457.86 897.787,1458.65 900.435,1460.22C903.083,1461.78 905.191,1463.88 906.758,1466.5C908.325,1469.12 909.108,1472.05 909.108,1475.29C909.108,1478.48 908.325,1481.4 906.758,1484.05C905.191,1486.7 903.083,1488.81 900.435,1490.37C897.787,1491.94 894.869,1492.72 891.682,1492.72Z" style="fill-rule:nonzero;"/>
            </g>
            <g transform="matrix(1,0,0,1,-857.754,-1556)">
                <path d="M891.682,1492.72C888.491,1492.72 885.571,1491.94 882.924,1490.37C880.277,1488.81 878.169,1486.7 876.602,1484.05C875.034,1481.4 874.25,1478.48 874.25,1475.29C874.25,1472.05 875.034,1469.12 876.602,1466.5C878.169,1463.88 880.277,1461.78 882.924,1460.22C885.571,1458.65 888.491,1457.86 891.682,1457.86C894.869,1457.86 897.787,1458.65 900.435,1460.22C903.083,1461.78 905.191,1463.88 906.758,1466.5C908.325,1469.12 909.108,1472.05 909.108,1475.29C909.108,1478.48 908.325,1481.4 906.758,1484.05C905.191,1486.7 903.083,1488.81 900.435,1490.37C897.787,1491.94 894.869,1492.72 891.682,1492.72Z" style="fill-rule:nonzero;"/>
            </g>
            <g transform="matrix(1,0,0,1,-787.241,-1556)">
                <path d="M893.602,1504.28C893.602,1514.95 887.114,1525.06 874.138,1526.17L839.842,1528.63C828.607,1529.72 823.241,1538.17 823.241,1546.86L823.241,1552.05L819.243,1552.05L819.243,1546.86C819.243,1536.19 825.71,1525.95 838.706,1524.89L873.002,1522.43C884.097,1521.24 889.684,1513.03 889.684,1504.28L889.684,1499.1L893.602,1499.1L893.602,1504.28Z" style="fill-rule:nonzero;"/>
            </g>
            <g transform="matrix(1,0,0,1,-787.241,-1556)">
                <path d="M823.166,1554.1L823.166,1488.32L819.166,1488.32L819.166,1554.1L823.166,1554.1Z"/>
            </g>
        </g>
        <g id="Ultralight-L" transform="matrix(1,0,0,1,491.133,1556)">
            <g transform="matrix(1,0,0,1,-491.133,-1556)">
                <path d="M524.521,1550.77C527.582,1550.77 530.375,1551.52 532.899,1553.03C535.423,1554.54 537.439,1556.57 538.947,1559.12C540.454,1561.68 541.208,1564.49 541.208,1567.55C541.208,1570.68 540.454,1573.5 538.947,1575.99C537.439,1578.48 535.423,1580.48 532.899,1581.99C530.375,1583.5 527.582,1584.26 524.521,1584.26C521.384,1584.26 518.54,1583.5 515.989,1581.99C513.438,1580.48 511.407,1578.48 509.896,1575.99C508.384,1573.5 507.629,1570.68 507.629,1567.55C507.629,1564.49 508.384,1561.68 509.896,1559.12C511.407,1556.57 513.438,1554.54 515.989,1553.03C518.54,1551.52 521.384,1550.77 524.521,1550.77Z" style="fill-rule:nonzero;"/>
            </g>
            <g transform="matrix(1,0,0,1,-491.133,-1548)">
                <path d="M594.99,1492.5C591.929,1492.5 589.121,1491.74 586.566,1490.23C584.012,1488.72 581.981,1486.69 580.473,1484.14C578.966,1481.59 578.212,1478.78 578.212,1475.71C578.212,1472.58 578.966,1469.75 580.473,1467.23C581.981,1464.7 584.012,1462.69 586.566,1461.18C589.121,1459.67 591.929,1458.92 594.99,1458.92C598.067,1458.92 600.88,1459.67 603.431,1461.18C605.982,1462.69 608.013,1464.7 609.524,1467.23C611.035,1469.75 611.791,1472.58 611.791,1475.71C611.791,1478.78 611.035,1481.59 609.524,1484.14C608.013,1486.69 605.982,1488.72 603.431,1490.23C600.88,1491.74 598.067,1492.5 594.99,1492.5Z" style="fill-rule:nonzero;"/>
            </g>
            <g transform="matrix(1,0,0,1,-561.716,-1556)">
                <path d="M594.99,1492.5C591.929,1492.5 589.121,1491.74 586.566,1490.23C584.012,1488.72 581.981,1486.69 580.473,1484.14C578.966,1481.59 578.212,1478.78 578.212,1475.71C578.212,1472.58 578.966,1469.75 580.473,1467.23C581.981,1464.7 584.012,1462.69 586.566,1461.18C589.121,1459.67 591.929,1458.92 594.99,1458.92C598.067,1458.92 600.88,1459.67 603.431,1461.18C605.982,1462.69 608.013,1464.7 609.524,1467.23C611.035,1469.75 611.791,1472.58 611.791,1475.71C611.791,1478.78 611.035,1481.59 609.524,1484.14C608.013,1486.69 605.982,1488.72 603.431,1490.23C600.88,1491.74 598.067,1492.5 594.99,1492.5Z" style="fill-rule:nonzero;"/>
            </g>
            <g transform="matrix(1,0,0,1,-491.133,-1556)">
                <path d="M596.215,1504.33C596.215,1514.52 590.027,1524.16 577.502,1525.4L542.637,1528.2C531.321,1528.9 525.827,1538.01 525.827,1546.94L525.827,1552.31L523.205,1552.31L523.205,1546.94C523.205,1536.75 529.286,1526.89 541.918,1525.77L576.783,1522.97C587.824,1522.05 593.674,1513.3 593.674,1504.33L593.674,1498.96L596.215,1498.96L596.215,1504.33Z" style="fill-rule:nonzero;"/>
            </g>
            <g transform="matrix(1,0,0,1,-491.133,-1556)">
                <path d="M525.918,1554.1L525.918,1488.32L522.918,1488.32L522.919,1554.1L525.918,1554.1Z"/>
            </g>
        </g>
        <g id="Black-M" transform="matrix(1,0,0,1,2871.73,1126)">
            <g transform="matrix(1,0,0,1,-2871.73,-1126)">
                <path d="M2904.95,1109.84C2908.71,1109.84 2912.14,1110.76 2915.26,1112.59C2918.38,1114.43 2920.86,1116.9 2922.7,1120C2924.54,1123.1 2925.45,1126.55 2925.45,1130.34C2925.45,1134.09 2924.54,1137.52 2922.7,1140.62C2920.86,1143.72 2918.38,1146.19 2915.26,1148.03C2912.14,1149.86 2908.71,1150.78 2904.95,1150.78C2901.2,1150.78 2897.77,1149.86 2894.67,1148.03C2891.57,1146.19 2889.1,1143.72 2887.26,1140.62C2885.43,1137.52 2884.51,1134.09 2884.51,1130.34C2884.51,1126.55 2885.43,1123.1 2887.26,1120C2889.1,1116.9 2891.57,1114.43 2894.67,1112.59C2897.77,1110.76 2901.2,1109.84 2904.95,1109.84Z" style="fill-rule:nonzero;"/>
            </g>
            <g transform="matrix(1,0,0,1,-2871.73,-1121)">
                <path d="M2961.86,1072.4C2958.06,1072.4 2954.61,1071.49 2951.51,1069.65C2948.41,1067.81 2945.94,1065.34 2944.11,1062.21C2942.27,1059.09 2941.35,1055.66 2941.35,1051.9C2941.35,1048.15 2942.27,1044.72 2944.11,1041.62C2945.94,1038.52 2948.41,1036.05 2951.51,1034.21C2954.61,1032.38 2958.06,1031.46 2961.86,1031.46C2965.61,1031.46 2969.03,1032.38 2972.14,1034.21C2975.24,1036.05 2977.71,1038.52 2979.54,1041.62C2981.38,1044.72 2982.3,1048.15 2982.3,1051.9C2982.3,1055.66 2981.38,1059.09 2979.54,1062.21C2977.71,1065.34 2975.24,1067.81 2972.14,1069.65C2969.03,1071.49 2965.61,1072.4 2961.86,1072.4Z" style="fill-rule:nonzero;"/>
            </g>
            <g transform="matrix(1,0,0,1,-2928.57,-1126)">
                <path d="M2961.86,1072.4C2958.06,1072.4 2954.61,1071.49 2951.51,1069.65C2948.41,1067.81 2945.94,1065.34 2944.11,1062.21C2942.27,1059.09 2941.35,1055.66 2941.35,1051.9C2941.35,1048.15 2942.27,1044.72 2944.11,1041.62C2945.94,1038.52 2948.41,1036.05 2951.51,1034.21C2954.61,1032.38 2958.06,1031.46 2961.86,1031.46C2965.61,1031.46 2969.03,1032.38 2972.14,1034.21C2975.24,1036.05 2977.71,1038.52 2979.54,1041.62C2981.38,1044.72 2982.3,1048.15 2982.3,1051.9C2982.3,1055.66 2981.38,1059.09 2979.54,1062.21C2977.71,1065.34 2975.24,1067.81 2972.14,1069.65C2969.03,1071.49 2965.61,1072.4 2961.86,1072.4Z" style="fill-rule:nonzero;"/>
            </g>
            <g transform="matrix(1,0,0,1,-2871.73,-1126)">
                <path d="M2970.01,1075.7C2970.01,1089.48 2962.71,1100.57 2948.25,1101.13L2923.24,1101.76C2916.62,1101.9 2913.17,1106.53 2913.17,1111.53L2913.17,1118.14L2896.79,1118.14L2896.79,1111.53C2896.79,1097.76 2904.06,1086.44 2918.55,1086.11L2943.62,1085.48C2950.04,1085.16 2953.64,1080.71 2953.64,1075.7L2953.64,1069.1L2970.01,1069.1L2970.01,1075.7Z" style="fill-rule:nonzero;"/>
            </g>
            <g transform="matrix(1,0,0,1,-2871.73,-1126)">
                <rect x="2896.83" y="1061.31" width="16.3" height="59.782"/>
            </g>
        </g>
        <g id="Heavy-M" transform="matrix(1,0,0,1,2576.43,1126)">
            <g transform="matrix(1,0,0,1,-2576.43,-1126)">
                <path d="M2608.53,1110.47C2612.09,1110.47 2615.34,1111.34 2618.29,1113.08C2621.23,1114.82 2623.57,1117.16 2625.31,1120.09C2627.05,1123.01 2627.92,1126.27 2627.92,1129.86C2627.92,1133.41 2627.05,1136.64 2625.31,1139.58C2623.57,1142.51 2621.23,1144.84 2618.29,1146.58C2615.34,1148.31 2612.09,1149.18 2608.53,1149.18C2604.99,1149.18 2601.75,1148.31 2598.82,1146.58C2595.88,1144.84 2593.55,1142.51 2591.81,1139.58C2590.08,1136.64 2589.21,1133.41 2589.21,1129.86C2589.21,1126.27 2590.08,1123.01 2591.81,1120.09C2593.55,1117.16 2595.88,1114.82 2598.82,1113.08C2601.75,1111.34 2604.99,1110.47 2608.53,1110.47Z" style="fill-rule:nonzero;"/>
            </g>
            <g transform="matrix(1,0,0,1,-2576.43,-1121)">
                <path d="M2664.87,1071.79C2661.27,1071.79 2658.01,1070.92 2655.09,1069.19C2652.16,1067.45 2649.82,1065.11 2648.08,1062.16C2646.34,1059.22 2645.47,1055.97 2645.47,1052.41C2645.47,1048.86 2646.34,1045.62 2648.08,1042.69C2649.82,1039.77 2652.16,1037.43 2655.09,1035.69C2658.01,1033.95 2661.27,1033.08 2664.87,1033.08C2668.41,1033.08 2671.64,1033.95 2674.58,1035.69C2677.51,1037.43 2679.85,1039.77 2681.58,1042.69C2683.32,1045.62 2684.18,1048.86 2684.18,1052.41C2684.18,1055.97 2683.32,1059.22 2681.58,1062.16C2679.85,1065.11 2677.51,1067.45 2674.58,1069.19C2671.64,1070.92 2668.41,1071.79 2664.87,1071.79Z" style="fill-rule:nonzero;"/>
            </g>
            <g transform="matrix(1,0,0,1,-2632.69,-1126)">
                <path d="M2664.87,1071.79C2661.27,1071.79 2658.01,1070.92 2655.09,1069.19C2652.16,1067.45 2649.82,1065.11 2648.08,1062.16C2646.34,1059.22 2645.47,1055.97 2645.47,1052.41C2645.47,1048.86 2646.34,1045.62 2648.08,1042.69C2649.82,1039.77 2652.16,1037.43 2655.09,1035.69C2658.01,1033.95 2661.27,1033.08 2664.87,1033.08C2668.41,1033.08 2671.64,1033.95 2674.58,1035.69C2677.51,1037.43 2679.85,1039.77 2681.58,1042.69C2683.32,1045.62 2684.18,1048.86 2684.18,1052.41C2684.18,1055.97 2683.32,1059.22 2681.58,1062.16C2679.85,1065.11 2677.51,1067.45 2674.58,1069.19C2671.64,1070.92 2668.41,1071.79 2664.87,1071.79Z" style="fill-rule:nonzero;"/>
            </g>
            <g transform="matrix(1,0,0,1,-2576.43,-1126)">
                <path d="M2672.02,1075.93C2672.02,1088.79 2665.03,1099.23 2651.22,1100.03L2626.31,1100.96C2619.27,1101.2 2615.75,1106.12 2615.75,1111.34L2615.75,1117.18L2601.37,1117.18L2601.37,1111.34C2601.37,1098.47 2608.41,1087.71 2622.18,1087.24L2647.13,1086.3C2654.01,1085.91 2657.66,1081.16 2657.66,1075.93L2657.66,1070.08L2672.02,1070.08L2672.02,1075.93Z" style="fill-rule:nonzero;"/>
            </g>
            <g transform="matrix(1,0,0,1,-2576.43,-1126)">
                <rect x="2601.37" y="1060.95" width="14.4" height="59.562"/>
            </g>
        </g>
        <g id="Bold-M" transform="matrix(1,0,0,1,2281.29,1126)">
            <g transform="matrix(1,0,0,1,-2281.29,-1126)">
                <path d="M2312.14,1111.18C2315.48,1111.18 2318.53,1112 2321.27,1113.63C2324.01,1115.26 2326.2,1117.44 2327.83,1120.18C2329.47,1122.92 2330.28,1125.97 2330.28,1129.33C2330.28,1132.64 2329.47,1135.66 2327.83,1138.41C2326.2,1141.15 2324.01,1143.33 2321.27,1144.95C2318.53,1146.58 2315.48,1147.39 2312.14,1147.39C2308.83,1147.39 2305.8,1146.58 2303.06,1144.95C2300.31,1143.33 2298.12,1141.15 2296.5,1138.41C2294.88,1135.66 2294.07,1132.64 2294.07,1129.33C2294.07,1125.97 2294.88,1122.92 2296.5,1120.18C2298.12,1117.44 2300.31,1115.26 2303.06,1113.63C2305.8,1112 2308.83,1111.18 2312.14,1111.18Z" style="fill-rule:nonzero;"/>
            </g>
            <g transform="matrix(1,0,0,1,-2281.29,-1121)">
                <path d="M2367.83,1071.11C2364.47,1071.11 2361.42,1070.3 2358.68,1068.68C2355.95,1067.06 2353.76,1064.87 2352.13,1062.11C2350.5,1059.35 2349.68,1056.31 2349.68,1052.99C2349.68,1049.66 2350.5,1046.63 2352.13,1043.9C2353.76,1041.16 2355.95,1038.98 2358.68,1037.35C2361.42,1035.71 2364.47,1034.9 2367.83,1034.9C2371.14,1034.9 2374.16,1035.71 2376.91,1037.35C2379.66,1038.98 2381.84,1041.16 2383.46,1043.9C2385.08,1046.63 2385.89,1049.66 2385.89,1052.99C2385.89,1056.31 2385.08,1059.35 2383.46,1062.11C2381.84,1064.87 2379.66,1067.06 2376.91,1068.68C2374.16,1070.3 2371.14,1071.11 2367.83,1071.11Z" style="fill-rule:nonzero;"/>
            </g>
            <g transform="matrix(1,0,0,1,-2336.9,-1126)">
                <path d="M2367.83,1071.11C2364.47,1071.11 2361.42,1070.3 2358.68,1068.68C2355.95,1067.06 2353.76,1064.87 2352.13,1062.11C2350.5,1059.35 2349.68,1056.31 2349.68,1052.99C2349.68,1049.66 2350.5,1046.63 2352.13,1043.9C2353.76,1041.16 2355.95,1038.98 2358.68,1037.35C2361.42,1035.71 2364.47,1034.9 2367.83,1034.9C2371.14,1034.9 2374.16,1035.71 2376.91,1037.35C2379.66,1038.98 2381.84,1041.16 2383.46,1043.9C2385.08,1046.63 2385.89,1049.66 2385.89,1052.99C2385.89,1056.31 2385.08,1059.35 2383.46,1062.11C2381.84,1064.87 2379.66,1067.06 2376.91,1068.68C2374.16,1070.3 2371.14,1071.11 2367.83,1071.11Z" style="fill-rule:nonzero;"/>
            </g>
            <g transform="matrix(1,0,0,1,-2281.29,-1126)">
                <path d="M2373.87,1076.18C2373.87,1088.02 2367.24,1097.86 2354.14,1098.81L2329.34,1100.06C2322.11,1100.56 2318.24,1105.67 2318.24,1111.11L2318.24,1116.11L2306.1,1116.11L2306.1,1111.11C2306.1,1099.27 2312.79,1089.23 2325.83,1088.51L2350.65,1087.22C2358.06,1086.86 2361.76,1081.66 2361.76,1076.18L2361.76,1071.18L2373.87,1071.18L2373.87,1076.18Z" style="fill-rule:nonzero;"/>
            </g>
            <g transform="matrix(1,0,0,1,-2281.29,-1126)">
                <rect x="2306.13" y="1063.95" width="12.1" height="56.555"/>
            </g>
        </g>
        <g id="Semibold-M" transform="matrix(1,0,0,1,1985.66,1126)">
            <g transform="matrix(1,0,0,1,-1985.66,-1126)">
                <path d="M2015.65,1111.67C2018.84,1111.67 2021.74,1112.45 2024.35,1114.01C2026.96,1115.56 2029.04,1117.64 2030.6,1120.25C2032.15,1122.85 2032.93,1125.76 2032.93,1128.96C2032.93,1132.11 2032.15,1134.99 2030.6,1137.6C2029.04,1140.21 2026.96,1142.29 2024.35,1143.84C2021.74,1145.38 2018.84,1146.15 2015.65,1146.15C2012.5,1146.15 2009.62,1145.38 2007,1143.84C2004.38,1142.29 2002.3,1140.21 2000.76,1137.6C1999.21,1134.99 1998.44,1132.11 1998.44,1128.96C1998.44,1125.76 1999.21,1122.85 2000.76,1120.25C2002.3,1117.64 2004.38,1115.56 2007,1114.01C2009.62,1112.45 2012.5,1111.67 2015.65,1111.67Z" style="fill-rule:nonzero;"/>
            </g>
            <g transform="matrix(1,0,0,1,-1985.66,-1121)">
                <path d="M2070.9,1070.64C2067.69,1070.64 2064.79,1069.87 2062.18,1068.32C2059.58,1066.78 2057.5,1064.69 2055.94,1062.07C2054.39,1059.45 2053.61,1056.55 2053.61,1053.39C2053.61,1050.21 2054.39,1047.33 2055.94,1044.72C2057.5,1042.12 2059.58,1040.04 2062.18,1038.49C2064.79,1036.93 2067.69,1036.15 2070.9,1036.15C2074.04,1036.15 2076.92,1036.93 2079.54,1038.49C2082.15,1040.04 2084.24,1042.12 2085.78,1044.72C2087.32,1047.33 2088.1,1050.21 2088.1,1053.39C2088.1,1056.55 2087.32,1059.45 2085.78,1062.07C2084.24,1064.69 2082.15,1066.78 2079.54,1068.32C2076.92,1069.87 2074.04,1070.64 2070.9,1070.64Z" style="fill-rule:nonzero;"/>
            </g>
            <g transform="matrix(1,0,0,1,-2040.83,-1126)">
                <path d="M2070.9,1070.64C2067.69,1070.64 2064.79,1069.87 2062.18,1068.32C2059.58,1066.78 2057.5,1064.69 2055.94,1062.07C2054.39,1059.45 2053.61,1056.55 2053.61,1053.39C2053.61,1050.21 2054.39,1047.33 2055.94,1044.72C2057.5,1042.12 2059.58,1040.04 2062.18,1038.49C2064.79,1036.93 2067.69,1036.15 2070.9,1036.15C2074.04,1036.15 2076.92,1036.93 2079.54,1038.49C2082.15,1040.04 2084.24,1042.12 2085.78,1044.72C2087.32,1047.33 2088.1,1050.21 2088.1,1053.39C2088.1,1056.55 2087.32,1059.45 2085.78,1062.07C2084.24,1064.69 2082.15,1066.78 2079.54,1068.32C2076.92,1069.87 2074.04,1070.64 2070.9,1070.64Z" style="fill-rule:nonzero;"/>
            </g>
            <g transform="matrix(1,0,0,1,-1985.66,-1126)">
                <path d="M2076.16,1076.35C2076.16,1087.5 2069.83,1097.04 2057.17,1097.96L2032.45,1099.45C2024.8,1100.06 2020.98,1105.35 2020.98,1110.96L2020.98,1115.37L2010.37,1115.37L2010.37,1110.96C2010.37,1099.82 2016.84,1090.34 2029.37,1089.38L2054.1,1087.86C2061.69,1087.33 2065.61,1082.01 2065.61,1076.35L2065.61,1071.94L2076.16,1071.94L2076.16,1076.35Z" style="fill-rule:nonzero;"/>
            </g>
            <g transform="matrix(1,0,0,1,-1985.66,-1126)">
                <rect x="2010.38" y="1064.07" width="10.6" height="55.887"/>
            </g>
        </g>
        <g id="Medium-M" transform="matrix(1,0,0,1,1689.77,1126)">
            <g transform="matrix(1,0,0,1,-1689.77,-1126)">
                <path d="M1719.1,1112.04C1722.18,1112.04 1724.97,1112.79 1727.48,1114.29C1729.98,1115.79 1731.98,1117.79 1733.48,1120.3C1734.98,1122.8 1735.73,1125.6 1735.73,1128.68C1735.73,1131.71 1734.98,1134.48 1733.48,1136.99C1731.98,1139.5 1729.98,1141.5 1727.48,1142.99C1724.97,1144.47 1722.18,1145.21 1719.1,1145.21C1716.08,1145.21 1713.31,1144.47 1710.79,1142.99C1708.27,1141.5 1706.26,1139.5 1704.78,1136.99C1703.29,1134.48 1702.55,1131.71 1702.55,1128.68C1702.55,1125.6 1703.29,1122.8 1704.78,1120.3C1706.26,1117.79 1708.27,1115.79 1710.79,1114.29C1713.31,1112.79 1716.08,1112.04 1719.1,1112.04Z" style="fill-rule:nonzero;"/>
            </g>
            <g transform="matrix(1,0,0,1,-1689.77,-1121)">
                <path d="M1774.02,1070.28C1770.93,1070.28 1768.14,1069.54 1765.63,1068.06C1763.13,1066.57 1761.13,1064.57 1759.63,1062.04C1758.13,1059.52 1757.38,1056.73 1757.38,1053.69C1757.38,1050.63 1758.13,1047.86 1759.63,1045.35C1761.13,1042.85 1763.13,1040.85 1765.63,1039.35C1768.14,1037.85 1770.93,1037.1 1774.02,1037.1C1777.04,1037.1 1779.81,1037.85 1782.33,1039.35C1784.85,1040.85 1786.85,1042.85 1788.33,1045.35C1789.82,1047.86 1790.56,1050.63 1790.56,1053.69C1790.56,1056.73 1789.82,1059.52 1788.33,1062.04C1786.85,1064.57 1784.85,1066.57 1782.33,1068.06C1779.81,1069.54 1777.04,1070.28 1774.02,1070.28Z" style="fill-rule:nonzero;"/>
            </g>
            <g transform="matrix(1,0,0,1,-1744.6,-1126)">
                <path d="M1774.02,1070.28C1770.93,1070.28 1768.14,1069.54 1765.63,1068.06C1763.13,1066.57 1761.13,1064.57 1759.63,1062.04C1758.13,1059.52 1757.38,1056.73 1757.38,1053.69C1757.38,1050.63 1758.13,1047.86 1759.63,1045.35C1761.13,1042.85 1763.13,1040.85 1765.63,1039.35C1768.14,1037.85 1770.93,1037.1 1774.02,1037.1C1777.04,1037.1 1779.81,1037.85 1782.33,1039.35C1784.85,1040.85 1786.85,1042.85 1788.33,1045.35C1789.82,1047.86 1790.56,1050.63 1790.56,1053.69C1790.56,1056.73 1789.82,1059.52 1788.33,1062.04C1786.85,1064.57 1784.85,1066.57 1782.33,1068.06C1779.81,1069.54 1777.04,1070.28 1774.02,1070.28Z" style="fill-rule:nonzero;"/>
            </g>
            <g transform="matrix(1,0,0,1,-1689.77,-1126)">
                <path d="M1778.7,1076.48C1778.7,1087.09 1772.42,1096.27 1760.26,1097.32L1735.61,1098.98C1727.77,1099.47 1723.85,1105.12 1723.85,1110.84L1723.85,1114.81L1714.41,1114.81L1714.41,1110.84C1714.41,1100.23 1720.67,1091.06 1732.85,1090.04L1757.51,1088.34C1765.33,1087.76 1769.32,1082.27 1769.32,1076.48L1769.32,1072.52L1778.7,1072.52L1778.7,1076.48Z" style="fill-rule:nonzero;"/>
            </g>
            <g transform="matrix(1,0,0,1,-1689.77,-1126)">
                <rect x="1714.44" y="1063.74" width="9.4" height="54.718"/>
            </g>
        </g>
        <g id="Regular-M" transform="matrix(1,0,0,1,1394.14,1126)">
            <g transform="matrix(1,0,0,1,-1394.14,-1126)">
                <path d="M1422.62,1112.53C1425.55,1112.53 1428.19,1113.24 1430.57,1114.66C1432.94,1116.09 1434.84,1117.99 1436.26,1120.36C1437.69,1122.74 1438.4,1125.39 1438.4,1128.32C1438.4,1131.18 1437.69,1133.81 1436.26,1136.19C1434.84,1138.58 1432.94,1140.47 1430.57,1141.88C1428.19,1143.29 1425.55,1143.99 1422.62,1143.99C1419.75,1143.99 1417.12,1143.29 1414.73,1141.88C1412.34,1140.47 1410.44,1138.58 1409.03,1136.19C1407.62,1133.81 1406.92,1131.18 1406.92,1128.32C1406.92,1125.39 1407.62,1122.74 1409.03,1120.36C1410.44,1117.99 1412.34,1116.09 1414.73,1114.66C1417.12,1113.24 1419.75,1112.53 1422.62,1112.53Z" style="fill-rule:nonzero;"/>
            </g>
            <g transform="matrix(1,0,0,1,-1394.14,-1121)">
                <path d="M1477.1,1069.82C1474.17,1069.82 1471.52,1069.11 1469.14,1067.7C1466.77,1066.3 1464.87,1064.4 1463.44,1062.01C1462.02,1059.61 1461.31,1056.97 1461.31,1054.08C1461.31,1051.18 1462.02,1048.54 1463.44,1046.17C1464.87,1043.8 1466.77,1041.9 1469.14,1040.48C1471.52,1039.05 1474.17,1038.34 1477.1,1038.34C1479.95,1038.34 1482.58,1039.05 1484.97,1040.48C1487.36,1041.9 1489.27,1043.8 1490.67,1046.17C1492.08,1048.54 1492.79,1051.18 1492.79,1054.08C1492.79,1056.97 1492.08,1059.61 1490.67,1062.01C1489.27,1064.4 1487.36,1066.3 1484.97,1067.7C1482.58,1069.11 1479.95,1069.82 1477.1,1069.82Z" style="fill-rule:nonzero;"/>
            </g>
            <g transform="matrix(1,0,0,1,-1448.53,-1126)">
                <path d="M1477.1,1069.82C1474.17,1069.82 1471.52,1069.11 1469.14,1067.7C1466.77,1066.3 1464.87,1064.4 1463.44,1062.01C1462.02,1059.61 1461.31,1056.97 1461.31,1054.08C1461.31,1051.18 1462.02,1048.54 1463.44,1046.17C1464.87,1043.8 1466.77,1041.9 1469.14,1040.48C1471.52,1039.05 1474.17,1038.34 1477.1,1038.34C1479.95,1038.34 1482.58,1039.05 1484.97,1040.48C1487.36,1041.9 1489.27,1043.8 1490.67,1046.17C1492.08,1048.54 1492.79,1051.18 1492.79,1054.08C1492.79,1056.97 1492.08,1059.61 1490.67,1062.01C1489.27,1064.4 1487.36,1066.3 1484.97,1067.7C1482.58,1069.11 1479.95,1069.82 1477.1,1069.82Z" style="fill-rule:nonzero;"/>
            </g>
            <g transform="matrix(1,0,0,1,-1394.14,-1126)">
                <path d="M1481.02,1076.65C1481.02,1086.57 1475.11,1095.57 1463.31,1096.48L1438.73,1098.37C1430.64,1099.09 1426.6,1104.8 1426.6,1110.69L1426.6,1114.08L1418.69,1114.08L1418.69,1110.69C1418.69,1100.78 1424.77,1091.75 1436.39,1090.9L1460.97,1088.96C1468.92,1088.38 1473.17,1082.62 1473.17,1076.65L1473.17,1073.27L1481.02,1073.27L1481.02,1076.65Z" style="fill-rule:nonzero;"/>
            </g>
            <g transform="matrix(1,0,0,1,-1394.14,-1126)">
                <rect x="1418.66" y="1063.74" width="8" height="53.184"/>
            </g>
        </g>
        <g id="Light-M" transform="matrix(1,0,0,1,1098.22,1126)">
            <g transform="matrix(1,0,0,1,-1098.22,-1126)">
                <path d="M1125.89,1112.99C1128.64,1112.99 1131.14,1113.66 1133.39,1115C1135.63,1116.35 1137.42,1118.15 1138.77,1120.4C1140.11,1122.65 1140.79,1125.16 1140.79,1127.91C1140.79,1130.64 1140.11,1133.13 1138.77,1135.37C1137.42,1137.62 1135.63,1139.41 1133.39,1140.74C1131.14,1142.08 1128.64,1142.74 1125.89,1142.74C1123.16,1142.74 1120.66,1142.08 1118.4,1140.74C1116.14,1139.41 1114.34,1137.62 1113,1135.37C1111.67,1133.13 1111,1130.64 1111,1127.91C1111,1125.16 1111.67,1122.65 1113,1120.4C1114.34,1118.15 1116.14,1116.35 1118.4,1115C1120.66,1113.66 1123.16,1112.99 1125.89,1112.99Z" style="fill-rule:nonzero;"/>
            </g>
            <g transform="matrix(1,0,0,1,-1098.22,-1121)">
                <path d="M1180.4,1069.52C1177.65,1069.52 1175.15,1068.86 1172.89,1067.52C1170.64,1066.19 1168.84,1064.39 1167.5,1062.12C1166.15,1059.86 1165.48,1057.36 1165.48,1054.63C1165.48,1051.88 1166.15,1049.38 1167.5,1047.14C1168.84,1044.89 1170.64,1043.1 1172.89,1041.76C1175.15,1040.41 1177.65,1039.74 1180.4,1039.74C1183.12,1039.74 1185.6,1040.41 1187.87,1041.76C1190.13,1043.1 1191.93,1044.89 1193.26,1047.14C1194.6,1049.38 1195.27,1051.88 1195.27,1054.63C1195.27,1057.36 1194.6,1059.86 1193.26,1062.12C1191.93,1064.39 1190.13,1066.19 1187.87,1067.52C1185.6,1068.86 1183.12,1069.52 1180.4,1069.52Z" style="fill-rule:nonzero;"/>
            </g>
            <g transform="matrix(1,0,0,1,-1152.7,-1126)">
                <path d="M1180.4,1069.52C1177.65,1069.52 1175.15,1068.86 1172.89,1067.52C1170.64,1066.19 1168.84,1064.39 1167.5,1062.12C1166.15,1059.86 1165.48,1057.36 1165.48,1054.63C1165.48,1051.88 1166.15,1049.38 1167.5,1047.14C1168.84,1044.89 1170.64,1043.1 1172.89,1041.76C1175.15,1040.41 1177.65,1039.74 1180.4,1039.74C1183.12,1039.74 1185.6,1040.41 1187.87,1041.76C1190.13,1043.1 1191.93,1044.89 1193.26,1047.14C1194.6,1049.38 1195.27,1051.88 1195.27,1054.63C1195.27,1057.36 1194.6,1059.86 1193.26,1062.12C1191.93,1064.39 1190.13,1066.19 1187.87,1067.52C1185.6,1068.86 1183.12,1069.52 1180.4,1069.52Z" style="fill-rule:nonzero;"/>
            </g>
            <g transform="matrix(1,0,0,1,-1098.22,-1126)">
                <path d="M1183.4,1076.71C1183.4,1086 1177.83,1092.25 1166.69,1095.45L1141.36,1097.8C1133.09,1100.26 1128.95,1104.6 1128.95,1110.8L1128.95,1114.43L1122.86,1114.43L1122.86,1110.8C1122.86,1101.51 1128.43,1095.26 1139.57,1092.06L1164.9,1089.68C1173.22,1087.3 1177.38,1082.98 1177.38,1076.71L1177.38,1073.08L1183.4,1073.08L1183.4,1076.71Z" style="fill-rule:nonzero;"/>
            </g>
            <g transform="matrix(1,0,0,1,-1098.22,-1126)">
                <rect x="1122.89" y="1063.74" width="6" height="54.934"/>
            </g>
        </g>
        <g id="Thin-M" transform="matrix(1,0,0,1,802.569,1126)">
            <g transform="matrix(1,0,0,1,-802.569,-1126)">
                <path d="M829.169,1113.59C831.696,1113.59 833.996,1114.21 836.068,1115.45C838.14,1116.69 839.796,1118.36 841.037,1120.45C842.277,1122.54 842.897,1124.85 842.897,1127.38C842.897,1129.93 842.277,1132.23 841.037,1134.29C839.796,1136.35 838.14,1137.99 836.068,1139.23C833.996,1140.47 831.696,1141.09 829.169,1141.09C826.616,1141.09 824.294,1140.47 822.201,1139.23C820.108,1137.99 818.443,1136.35 817.205,1134.29C815.968,1132.23 815.349,1129.93 815.349,1127.38C815.349,1124.85 815.968,1122.54 817.205,1120.45C818.443,1118.36 820.108,1116.69 822.201,1115.45C824.294,1114.21 826.616,1113.59 829.169,1113.59Z" style="fill-rule:nonzero;"/>
            </g>
            <g transform="matrix(1,0,0,1,-802.569,-1121)">
                <path d="M883.731,1069.13C881.204,1069.13 878.895,1068.52 876.805,1067.28C874.715,1066.04 873.05,1064.38 871.809,1062.28C870.569,1060.19 869.949,1057.88 869.949,1055.36C869.949,1052.8 870.569,1050.49 871.809,1048.41C873.05,1046.34 874.715,1044.69 876.805,1043.45C878.895,1042.21 881.204,1041.59 883.731,1041.59C886.248,1041.59 888.552,1042.21 890.645,1043.45C892.738,1044.69 894.403,1046.34 895.641,1048.41C896.878,1050.49 897.497,1052.8 897.497,1055.36C897.497,1057.88 896.878,1060.19 895.641,1062.28C894.403,1064.38 892.738,1066.04 890.645,1067.28C888.552,1068.52 886.248,1069.13 883.731,1069.13Z" style="fill-rule:nonzero;"/>
            </g>
            <g transform="matrix(1,0,0,1,-857.169,-1126)">
                <path d="M883.731,1069.13C881.204,1069.13 878.895,1068.52 876.805,1067.28C874.715,1066.04 873.05,1064.38 871.809,1062.28C870.569,1060.19 869.949,1057.88 869.949,1055.36C869.949,1052.8 870.569,1050.49 871.809,1048.41C873.05,1046.34 874.715,1044.69 876.805,1043.45C878.895,1042.21 881.204,1041.59 883.731,1041.59C886.248,1041.59 888.552,1042.21 890.645,1043.45C892.738,1044.69 894.403,1046.34 895.641,1048.41C896.878,1050.49 897.497,1052.8 897.497,1055.36C897.497,1057.88 896.878,1060.19 895.641,1062.28C894.403,1064.38 892.738,1066.04 890.645,1067.28C888.552,1068.52 886.248,1069.13 883.731,1069.13Z" style="fill-rule:nonzero;"/>
            </g>
            <g transform="matrix(1,0,0,1,-802.569,-1126)">
                <path d="M885.513,1076.78C885.513,1085.24 880.285,1093.07 870.116,1094.09L843.787,1097.05C835.271,1097.96 831.013,1104.32 831.013,1110.95L831.013,1114.89L827.333,1114.89L827.333,1110.95C827.333,1102.48 832.777,1094.48 842.73,1093.59L869.059,1090.63C877.616,1089.43 881.895,1083.46 881.895,1076.78L881.895,1072.84L885.513,1072.84L885.513,1076.78Z" style="fill-rule:nonzero;"/>
            </g>
            <g transform="matrix(1,0,0,1,-802.569,-1126)">
                <rect x="827.323" y="1066.14" width="3.6" height="51.019"/>
            </g>
        </g>
        <g id="Ultralight-M" transform="matrix(1,0,0,1,506.399,1126)">
            <g transform="matrix(1,0,0,1,-506.399,-1126)">
                <path d="M532.45,1113.91C534.861,1113.91 537.059,1114.5 539.044,1115.68C541.029,1116.87 542.615,1118.47 543.801,1120.48C544.987,1122.48 545.58,1124.69 545.58,1127.1C545.58,1129.56 544.987,1131.77 543.801,1133.74C542.615,1135.7 541.029,1137.27 539.044,1138.46C537.059,1139.65 534.861,1140.24 532.45,1140.24C529.989,1140.24 527.756,1139.65 525.75,1138.46C523.745,1137.27 522.148,1135.7 520.96,1133.74C519.773,1131.77 519.179,1129.56 519.179,1127.1C519.179,1124.69 519.773,1122.48 520.96,1120.48C522.148,1118.47 523.745,1116.87 525.75,1115.68C527.756,1114.5 529.989,1113.91 532.45,1113.91Z" style="fill-rule:nonzero;"/>
            </g>
            <g transform="matrix(1,0,0,1,-506.399,-1121)">
                <path d="M587.038,1068.93C584.627,1068.93 582.418,1068.34 580.411,1067.15C578.403,1065.97 576.807,1064.37 575.621,1062.36C574.434,1060.36 573.841,1058.15 573.841,1055.73C573.841,1053.28 574.434,1051.05 575.621,1049.07C576.807,1047.09 578.403,1045.5 580.411,1044.31C582.418,1043.13 584.627,1042.53 587.038,1042.53C589.454,1042.53 591.666,1043.13 593.671,1044.31C595.677,1045.5 597.273,1047.09 598.461,1049.07C599.649,1051.05 600.243,1053.28 600.243,1055.73C600.243,1058.15 599.649,1060.36 598.461,1062.36C597.273,1064.37 595.677,1065.97 593.671,1067.15C591.666,1068.34 589.454,1068.93 587.038,1068.93Z" style="fill-rule:nonzero;"/>
            </g>
            <g transform="matrix(1,0,0,1,-561.061,-1126)">
                <path d="M587.038,1068.93C584.627,1068.93 582.418,1068.34 580.411,1067.15C578.403,1065.97 576.807,1064.37 575.621,1062.36C574.434,1060.36 573.841,1058.15 573.841,1055.73C573.841,1053.28 574.434,1051.05 575.621,1049.07C576.807,1047.09 578.403,1045.5 580.411,1044.31C582.418,1043.13 584.627,1042.53 587.038,1042.53C589.454,1042.53 591.666,1043.13 593.671,1044.31C595.677,1045.5 597.273,1047.09 598.461,1049.07C599.649,1051.05 600.243,1053.28 600.243,1055.73C600.243,1058.15 599.649,1060.36 598.461,1062.36C597.273,1064.37 595.677,1065.97 593.671,1067.15C591.666,1068.34 589.454,1068.93 587.038,1068.93Z" style="fill-rule:nonzero;"/>
            </g>
            <g transform="matrix(1,0,0,1,-506.399,-1126)">
                <path d="M588.196,1076.82C588.196,1084.86 583.288,1092.07 573.472,1093.39L546.632,1096.66C538.151,1097.74 533.671,1104.18 533.671,1111.02L533.671,1115.13L531.225,1115.13L531.225,1111.02C531.225,1102.98 536.24,1095.53 545.949,1094.38L572.789,1091.12C581.529,1089.77 585.812,1083.7 585.812,1076.82L585.812,1072.71L588.196,1072.71L588.196,1076.82Z" style="fill-rule:nonzero;"/>
            </g>
            <g transform="matrix(1,0,0,1,-506.399,-1126)">
                <rect x="530.88" y="1064.63" width="3" height="53.322"/>
            </g>
        </g>
        <g id="Black-S" transform="matrix(1,0,0,1,2884.69,696)">
            <g transform="matrix(1,0,0,1,-2884.69,-696)">
                <path d="M2911.01,675.547C2914.01,675.547 2916.75,676.279 2919.24,677.744C2921.73,679.209 2923.71,681.178 2925.17,683.652C2926.64,686.126 2927.37,688.877 2927.37,691.904C2927.37,694.899 2926.64,697.633 2925.17,700.107C2923.71,702.581 2921.73,704.551 2919.24,706.016C2916.75,707.48 2914.01,708.213 2911.01,708.213C2908.02,708.213 2905.28,707.48 2902.81,706.016C2900.34,704.551 2898.37,702.581 2896.9,700.107C2895.44,697.633 2894.71,694.899 2894.71,691.904C2894.71,688.877 2895.44,686.126 2896.9,683.652C2898.37,681.178 2900.34,679.209 2902.81,677.744C2905.28,676.279 2908.02,675.547 2911.01,675.547Z" style="fill-rule:nonzero;"/>
            </g>
            <g transform="matrix(1,0,0,1,-2884.69,-692)">
                <path d="M2955.79,646.543C2952.76,646.543 2950.01,645.811 2947.54,644.346C2945.06,642.881 2943.09,640.903 2941.63,638.413C2940.16,635.923 2939.43,633.18 2939.43,630.186C2939.43,627.191 2940.16,624.456 2941.63,621.982C2943.09,619.508 2945.06,617.539 2947.54,616.074C2950.01,614.609 2952.76,613.877 2955.79,613.877C2958.78,613.877 2961.52,614.609 2963.99,616.074C2966.47,617.539 2968.44,619.508 2969.9,621.982C2971.37,624.456 2972.1,627.191 2972.1,630.186C2972.1,633.18 2971.37,635.923 2969.9,638.413C2968.44,640.903 2966.47,642.881 2963.99,644.346C2961.52,645.811 2958.78,646.543 2955.79,646.543Z" style="fill-rule:nonzero;"/>
            </g>
            <g transform="matrix(1,0,0,1,-2929.42,-696)">
                <path d="M2955.79,646.543C2952.76,646.543 2950.01,645.811 2947.54,644.346C2945.06,642.881 2943.09,640.903 2941.63,638.413C2940.16,635.923 2939.43,633.18 2939.43,630.186C2939.43,627.191 2940.16,624.456 2941.63,621.982C2943.09,619.508 2945.06,617.539 2947.54,616.074C2950.01,614.609 2952.76,613.877 2955.79,613.877C2958.78,613.877 2961.52,614.609 2963.99,616.074C2966.47,617.539 2968.44,619.508 2969.9,621.982C2971.37,624.456 2972.1,627.191 2972.1,630.186C2972.1,633.18 2971.37,635.923 2969.9,638.413C2968.44,640.903 2966.47,642.881 2963.99,644.346C2961.52,645.811 2958.78,646.543 2955.79,646.543Z" style="fill-rule:nonzero;"/>
            </g>
            <g transform="matrix(1,0,0,1,-2884.69,-696)">
                <path d="M2962.43,648.981C2962.43,660.016 2956.83,668.846 2945.14,669.244L2925.47,669.59C2920.34,669.705 2917.7,673.236 2917.7,677.109L2917.7,682.529L2904.37,682.529L2904.37,677.109C2904.37,666.074 2910.15,657.035 2921.66,656.846L2941.39,656.5C2946.53,656.346 2949.1,652.854 2949.1,648.981L2949.1,643.561L2962.43,643.561L2962.43,648.981Z" style="fill-rule:nonzero;"/>
            </g>
            <g transform="matrix(1,0,0,1,-2884.69,-696)">
                <rect x="2904.39" y="638.69" width="13.3" height="46.213"/>
            </g>
        </g>
        <g id="Heavy-S" transform="matrix(1,0,0,1,2589.08,696)">
            <g transform="matrix(1,0,0,1,-2589.08,-696)">
                <path d="M2614.55,676.031C2617.4,676.031 2620,676.727 2622.36,678.119C2624.71,679.511 2626.59,681.378 2627.98,683.722C2629.37,686.065 2630.07,688.673 2630.07,691.547C2630.07,694.38 2629.37,696.971 2627.98,699.318C2626.59,701.665 2624.71,703.533 2622.36,704.921C2620,706.309 2617.4,707.003 2614.55,707.003C2611.72,707.003 2609.13,706.309 2606.78,704.921C2604.43,703.533 2602.57,701.665 2601.18,699.318C2599.79,696.971 2599.1,694.38 2599.1,691.547C2599.1,688.673 2599.79,686.065 2601.18,683.722C2602.57,681.378 2604.43,679.511 2606.78,678.119C2609.13,676.727 2611.72,676.031 2614.55,676.031Z" style="fill-rule:nonzero;"/>
            </g>
            <g transform="matrix(1,0,0,1,-2589.08,-692)">
                <path d="M2658.83,646.059C2655.96,646.059 2653.35,645.365 2651.01,643.977C2648.66,642.589 2646.8,640.715 2645.4,638.356C2644.01,635.996 2643.32,633.395 2643.32,630.554C2643.32,627.713 2644.01,625.121 2645.4,622.778C2646.8,620.434 2648.66,618.567 2651.01,617.175C2653.35,615.783 2655.96,615.087 2658.83,615.087C2661.66,615.087 2664.26,615.783 2666.6,617.175C2668.95,618.567 2670.82,620.434 2672.2,622.778C2673.59,625.121 2674.29,627.713 2674.29,630.554C2674.29,633.395 2673.59,635.996 2672.2,638.356C2670.82,640.715 2668.95,642.589 2666.6,643.977C2664.26,645.365 2661.66,646.059 2658.83,646.059Z" style="fill-rule:nonzero;"/>
            </g>
            <g transform="matrix(1,0,0,1,-2633.3,-696)">
                <path d="M2658.83,646.059C2655.96,646.059 2653.35,645.365 2651.01,643.977C2648.66,642.589 2646.8,640.715 2645.4,638.356C2644.01,635.996 2643.32,633.395 2643.32,630.554C2643.32,627.713 2644.01,625.121 2645.4,622.778C2646.8,620.434 2648.66,618.567 2651.01,617.175C2653.35,615.783 2655.96,615.087 2658.83,615.087C2661.66,615.087 2664.26,615.783 2666.6,617.175C2668.95,618.567 2670.82,620.434 2672.2,622.778C2673.59,625.121 2674.29,627.713 2674.29,630.554C2674.29,633.395 2673.59,635.996 2672.2,638.356C2670.82,640.715 2668.95,642.589 2666.6,643.977C2664.26,645.365 2661.66,646.059 2658.83,646.059Z" style="fill-rule:nonzero;"/>
            </g>
            <g transform="matrix(1,0,0,1,-2589.08,-696)">
                <path d="M2664.73,649.165C2664.73,659.501 2659.07,668.156 2648.14,668.437L2628.65,668.979C2623.24,669.291 2620.5,672.913 2620.5,676.925L2620.5,681.665L2608.65,681.665L2608.65,676.925C2608.65,666.589 2614.16,658.092 2625.24,657.664L2644.77,657.111C2650.18,656.866 2652.89,653.192 2652.89,649.165L2652.89,644.425L2664.73,644.425L2664.73,649.165Z" style="fill-rule:nonzero;"/>
            </g>
            <g transform="matrix(1,0,0,1,-2589.08,-696)">
                <rect x="2608.63" y="637.84" width="11.9" height="46.688"/>
            </g>
        </g>
        <g id="Bold-S" transform="matrix(1,0,0,1,2293.6,696)">
            <g transform="matrix(1,0,0,1,-2293.6,-696)">
                <path d="M2318.12,676.572C2320.8,676.572 2323.25,677.227 2325.45,678.538C2327.66,679.848 2329.42,681.602 2330.73,683.799C2332.04,685.996 2332.69,688.446 2332.69,691.147C2332.69,693.8 2332.04,696.23 2330.73,698.435C2329.42,700.64 2327.66,702.394 2325.45,703.696C2323.25,704.998 2320.8,705.649 2318.12,705.649C2315.46,705.649 2313.03,704.998 2310.83,703.696C2308.62,702.394 2306.87,700.64 2305.57,698.435C2304.27,696.23 2303.62,693.8 2303.62,691.147C2303.62,688.446 2304.27,685.996 2305.57,683.799C2306.87,681.602 2308.62,679.848 2310.83,678.538C2313.03,677.227 2315.46,676.572 2318.12,676.572Z" style="fill-rule:nonzero;"/>
            </g>
            <g transform="matrix(1,0,0,1,-2293.6,-692)">
                <path d="M2361.84,645.518C2359.14,645.518 2356.69,644.867 2354.49,643.564C2352.3,642.262 2350.54,640.505 2349.23,638.291C2347.92,636.077 2347.27,633.636 2347.27,630.967C2347.27,628.298 2347.92,625.864 2349.23,623.667C2350.54,621.47 2352.3,619.716 2354.49,618.406C2356.69,617.096 2359.14,616.44 2361.84,616.44C2364.5,616.44 2366.93,617.096 2369.13,618.406C2371.34,619.716 2373.09,621.47 2374.39,623.667C2375.69,625.864 2376.35,628.298 2376.35,630.967C2376.35,633.636 2375.69,636.077 2374.39,638.291C2373.09,640.505 2371.34,642.262 2369.13,643.564C2366.93,644.867 2364.5,645.518 2361.84,645.518Z" style="fill-rule:nonzero;"/>
            </g>
            <g transform="matrix(1,0,0,1,-2337.25,-696)">
                <path d="M2361.84,645.518C2359.14,645.518 2356.69,644.867 2354.49,643.564C2352.3,642.262 2350.54,640.505 2349.23,638.291C2347.92,636.077 2347.27,633.636 2347.27,630.967C2347.27,628.298 2347.92,625.864 2349.23,623.667C2350.54,621.47 2352.3,619.716 2354.49,618.406C2356.69,617.096 2359.14,616.44 2361.84,616.44C2364.5,616.44 2366.93,617.096 2369.13,618.406C2371.34,619.716 2373.09,621.47 2374.39,623.667C2375.69,625.864 2376.35,628.298 2376.35,630.967C2376.35,633.636 2375.69,636.077 2374.39,638.291C2373.09,640.505 2371.34,642.262 2369.13,643.564C2366.93,644.867 2364.5,645.518 2361.84,645.518Z" style="fill-rule:nonzero;"/>
            </g>
            <g transform="matrix(1,0,0,1,-2293.6,-696)">
                <path d="M2366.92,649.371C2366.92,658.925 2361.58,667.062 2351.1,667.535L2331.81,668.296C2326.22,668.537 2323.24,672.552 2323.24,676.719L2323.24,680.698L2313.04,680.698L2313.04,676.719C2313.04,667.165 2318.43,659.119 2328.86,658.579L2348.17,657.794C2353.88,657.456 2356.74,653.57 2356.74,649.371L2356.74,645.392L2366.92,645.392L2366.92,649.371Z" style="fill-rule:nonzero;"/>
            </g>
            <g transform="matrix(1,0,0,1,-2293.6,-696)">
                <rect x="2313.05" y="639.052" width="10.2" height="43.786"/>
            </g>
        </g>
        <g id="Semibold-S" transform="matrix(1,0,0,1,1997.74,696)">
            <g transform="matrix(1,0,0,1,-1997.74,-696)">
                <path d="M2021.6,676.946C2024.17,676.946 2026.51,677.572 2028.61,678.826C2030.71,680.08 2032.39,681.756 2033.64,683.852C2034.9,685.949 2035.53,688.289 2035.53,690.872C2035.53,693.401 2034.9,695.719 2033.64,697.826C2032.39,699.934 2030.71,701.609 2028.61,702.852C2026.51,704.095 2024.17,704.716 2021.6,704.716C2019.07,704.716 2016.75,704.095 2014.64,702.852C2012.54,701.609 2010.86,699.934 2009.62,697.826C2008.38,695.719 2007.76,693.401 2007.76,690.872C2007.76,688.289 2008.38,685.949 2009.62,683.852C2010.86,681.756 2012.54,680.08 2014.64,678.826C2016.75,677.572 2019.07,676.946 2021.6,676.946Z" style="fill-rule:nonzero;"/>
            </g>
            <g transform="matrix(1,0,0,1,-1997.74,-692)">
                <path d="M2064.94,645.144C2062.36,645.144 2060.02,644.523 2057.92,643.28C2055.83,642.037 2054.15,640.359 2052.9,638.247C2051.64,636.134 2051.02,633.802 2051.02,631.251C2051.02,628.7 2051.64,626.377 2052.9,624.28C2054.15,622.184 2055.83,620.508 2057.92,619.254C2060.02,618 2062.36,617.374 2064.94,617.374C2067.47,617.374 2069.79,618 2071.9,619.254C2074.01,620.508 2075.68,622.184 2076.92,624.28C2078.17,626.377 2078.79,628.7 2078.79,631.251C2078.79,633.802 2078.17,636.134 2076.92,638.247C2075.68,640.359 2074.01,642.037 2071.9,643.28C2069.79,644.523 2067.47,645.144 2064.94,645.144Z" style="fill-rule:nonzero;"/>
            </g>
            <g transform="matrix(1,0,0,1,-2041,-696)">
                <path d="M2064.94,645.144C2062.36,645.144 2060.02,644.523 2057.92,643.28C2055.83,642.037 2054.15,640.359 2052.9,638.247C2051.64,636.134 2051.02,633.802 2051.02,631.251C2051.02,628.7 2051.64,626.377 2052.9,624.28C2054.15,622.184 2055.83,620.508 2057.92,619.254C2060.02,618 2062.36,617.374 2064.94,617.374C2067.47,617.374 2069.79,618 2071.9,619.254C2074.01,620.508 2075.68,622.184 2076.92,624.28C2078.17,626.377 2078.79,628.7 2078.79,631.251C2078.79,633.802 2078.17,636.134 2076.92,638.247C2075.68,640.359 2074.01,642.037 2071.9,643.28C2069.79,644.523 2067.47,645.144 2064.94,645.144Z" style="fill-rule:nonzero;"/>
            </g>
            <g transform="matrix(1,0,0,1,-1997.74,-696)">
                <path d="M2069.45,649.513C2069.45,658.528 2064.25,666.483 2054.17,666.913L2035.02,667.825C2029.16,668.137 2026.16,672.303 2026.16,676.577L2026.16,680.032L2017.09,680.032L2017.09,676.577C2017.09,667.562 2022.19,659.583 2032.38,659.21L2051.54,658.265C2057.3,657.919 2060.42,653.831 2060.42,649.513L2060.42,646.058L2069.45,646.058L2069.45,649.513Z" style="fill-rule:nonzero;"/>
            </g>
            <g transform="matrix(1,0,0,1,-1997.74,-696)">
                <rect x="2017.09" y="638.637" width="9.1" height="43.083"/>
            </g>
        </g>
        <g id="Medium-S" transform="matrix(1,0,0,1,1701.67,696)">
            <g transform="matrix(1,0,0,1,-1701.67,-696)">
                <path d="M1725.03,677.229C1727.52,677.229 1729.77,677.834 1731.8,679.045C1733.82,680.257 1735.44,681.872 1736.65,683.893C1737.86,685.913 1738.47,688.17 1738.47,690.663C1738.47,693.097 1737.86,695.331 1736.65,697.365C1735.44,699.398 1733.82,701.014 1731.8,702.212C1729.77,703.41 1727.52,704.009 1725.03,704.009C1722.6,704.009 1720.36,703.41 1718.33,702.212C1716.3,701.014 1714.68,699.398 1713.48,697.365C1712.29,695.331 1711.69,693.097 1711.69,690.663C1711.69,688.17 1712.29,685.913 1713.48,683.893C1714.68,681.872 1716.3,680.257 1718.33,679.045C1720.36,677.834 1722.6,677.229 1725.03,677.229Z" style="fill-rule:nonzero;"/>
            </g>
            <g transform="matrix(1,0,0,1,-1701.67,-692)">
                <path d="M1768.09,644.861C1765.59,644.861 1763.34,644.262 1761.32,643.064C1759.29,641.867 1757.68,640.249 1756.47,638.213C1755.26,636.176 1754.65,633.928 1754.65,631.467C1754.65,629.006 1755.26,626.765 1756.47,624.745C1757.68,622.725 1759.29,621.109 1761.32,619.898C1763.34,618.687 1765.59,618.081 1768.09,618.081C1770.52,618.081 1772.75,618.687 1774.79,619.898C1776.82,621.109 1778.44,622.725 1779.63,624.745C1780.83,626.765 1781.43,629.006 1781.43,631.467C1781.43,633.928 1780.83,636.176 1779.63,638.213C1778.44,640.249 1776.82,641.867 1774.79,643.064C1772.75,644.262 1770.52,644.861 1768.09,644.861Z" style="fill-rule:nonzero;"/>
            </g>
            <g transform="matrix(1,0,0,1,-1744.63,-696)">
                <path d="M1768.09,644.861C1765.59,644.861 1763.34,644.262 1761.32,643.064C1759.29,641.867 1757.68,640.249 1756.47,638.213C1755.26,636.176 1754.65,633.928 1754.65,631.467C1754.65,629.006 1755.26,626.765 1756.47,624.745C1757.68,622.725 1759.29,621.109 1761.32,619.898C1763.34,618.687 1765.59,618.081 1768.09,618.081C1770.52,618.081 1772.75,618.687 1774.79,619.898C1776.82,621.109 1778.44,622.725 1779.63,624.745C1780.83,626.765 1781.43,629.006 1781.43,631.467C1781.43,633.928 1780.83,636.176 1779.63,638.213C1778.44,640.249 1776.82,641.867 1774.79,643.064C1772.75,644.262 1770.52,644.861 1768.09,644.861Z" style="fill-rule:nonzero;"/>
            </g>
            <g transform="matrix(1,0,0,1,-1701.67,-696)">
                <path d="M1772.16,649.621C1772.16,658.227 1767.25,665.771 1757.28,666.441L1738.24,667.468C1732.23,667.807 1729.16,672.115 1729.16,676.469L1729.16,679.526L1720.95,679.526L1720.95,676.469C1720.95,667.863 1725.98,660.402 1735.84,659.689L1754.88,658.622C1760.97,658.264 1764,654.029 1764,649.621L1764,646.564L1772.16,646.564L1772.16,649.621Z" style="fill-rule:nonzero;"/>
            </g>
            <g transform="matrix(1,0,0,1,-1701.67,-696)">
                <rect x="1720.98" y="639.85" width="8.2" height="40.702"/>
            </g>
        </g>
        <g id="Regular-S" transform="matrix(1,0,0,1,1405.8,696)">
            <g transform="matrix(1,0,0,1,-1405.8,-696)">
                <path d="M1428.51,677.598C1430.89,677.598 1433.04,678.176 1434.96,679.331C1436.88,680.487 1438.41,682.025 1439.57,683.945C1440.73,685.866 1441.3,688.014 1441.3,690.391C1441.3,692.702 1440.73,694.826 1439.57,696.763C1438.41,698.7 1436.88,700.238 1434.96,701.377C1433.04,702.516 1430.89,703.086 1428.51,703.086C1426.2,703.086 1424.08,702.516 1422.14,701.377C1420.2,700.238 1418.66,698.7 1417.53,696.763C1416.38,694.826 1415.82,692.702 1415.82,690.391C1415.82,688.014 1416.38,685.866 1417.53,683.945C1418.66,682.025 1420.2,680.487 1422.14,679.331C1424.08,678.176 1426.2,677.598 1428.51,677.598Z" style="fill-rule:nonzero;"/>
            </g>
            <g transform="matrix(1,0,0,1,-1405.8,-692)">
                <path d="M1471.19,644.492C1468.81,644.492 1466.66,643.923 1464.74,642.783C1462.82,641.644 1461.28,640.106 1460.13,638.169C1458.97,636.232 1458.39,634.092 1458.39,631.748C1458.39,629.404 1458.97,627.272 1460.13,625.352C1461.28,623.431 1462.82,621.893 1464.74,620.737C1466.66,619.582 1468.81,619.004 1471.19,619.004C1473.5,619.004 1475.62,619.582 1477.56,620.737C1479.5,621.893 1481.03,623.431 1482.17,625.352C1483.31,627.272 1483.88,629.404 1483.88,631.748C1483.88,634.092 1483.31,636.232 1482.17,638.169C1481.03,640.106 1479.5,641.644 1477.56,642.783C1475.62,643.923 1473.5,644.492 1471.19,644.492Z" style="fill-rule:nonzero;"/>
            </g>
            <g transform="matrix(1,0,0,1,-1448.38,-696)">
                <path d="M1471.19,644.492C1468.81,644.492 1466.66,643.923 1464.74,642.783C1462.82,641.644 1461.28,640.106 1460.13,638.169C1458.97,636.232 1458.39,634.092 1458.39,631.748C1458.39,629.404 1458.97,627.272 1460.13,625.352C1461.28,623.431 1462.82,621.893 1464.74,620.737C1466.66,619.582 1468.81,619.004 1471.19,619.004C1473.5,619.004 1475.62,619.582 1477.56,620.737C1479.5,621.893 1481.03,623.431 1482.17,625.352C1483.31,627.272 1483.88,629.404 1483.88,631.748C1483.88,634.092 1483.31,636.232 1482.17,638.169C1481.03,640.106 1479.5,641.644 1477.56,642.783C1475.62,643.923 1473.5,644.492 1471.19,644.492Z" style="fill-rule:nonzero;"/>
            </g>
            <g transform="matrix(1,0,0,1,-1405.8,-696)">
                <path d="M1474.7,649.762C1474.7,657.835 1469.84,664.769 1460.35,665.826L1441.45,667.002C1435.17,667.878 1432.08,671.869 1432.08,676.328L1432.08,678.867L1425,678.867L1425,676.328C1425,668.255 1429.78,661.476 1439.35,660.313L1458.25,659.088C1464.52,658.272 1467.67,654.286 1467.67,649.762L1467.67,647.223L1474.7,647.223L1474.7,649.762Z" style="fill-rule:nonzero;"/>
            </g>
            <g transform="matrix(1,0,0,1,-1405.8,-696)">
                <path d="M1432.06,682.708L1432.06,635.748C1432.06,633.816 1430.49,632.248 1428.56,632.248C1426.63,632.248 1425.06,633.816 1425.06,635.748L1425.06,682.708C1425.06,684.64 1426.63,686.208 1428.56,686.208C1430.49,686.208 1432.06,684.64 1432.06,682.708Z"/>
            </g>
        </g>
        <g id="Light-S" transform="matrix(1,0,0,1,1109.79,696)">
            <g transform="matrix(1,0,0,1,-1109.79,-696)">
                <path d="M1131.79,678.005C1134.01,678.005 1136.03,678.547 1137.83,679.632C1139.64,680.717 1141.08,682.166 1142.17,683.978C1143.25,685.79 1143.8,687.808 1143.8,690.033C1143.8,692.224 1143.25,694.226 1142.17,696.038C1141.08,697.85 1139.64,699.294 1137.83,700.368C1136.03,701.442 1134.01,701.979 1131.79,701.979C1129.59,701.979 1127.59,701.442 1125.76,700.368C1123.94,699.294 1122.49,697.85 1121.42,696.038C1120.34,694.226 1119.81,692.224 1119.81,690.033C1119.81,687.808 1120.34,685.79 1121.42,683.978C1122.49,682.166 1123.94,680.717 1125.76,679.632C1127.59,678.547 1129.59,678.005 1131.79,678.005Z" style="fill-rule:nonzero;"/>
            </g>
            <g transform="matrix(1,0,0,1,-1109.79,-693)">
                <path d="M1174.49,644.232C1172.27,644.232 1170.25,643.695 1168.44,642.62C1166.63,641.546 1165.18,640.098 1164.09,638.275C1163.01,636.452 1162.46,634.439 1162.46,632.236C1162.46,630.023 1163.01,628.013 1164.09,626.206C1165.18,624.399 1166.63,622.954 1168.44,621.869C1170.25,620.783 1172.27,620.241 1174.49,620.241C1176.67,620.241 1178.68,620.783 1180.5,621.869C1182.32,622.954 1183.77,624.399 1184.85,626.206C1185.92,628.013 1186.46,630.023 1186.46,632.236C1186.46,634.439 1185.92,636.452 1184.85,638.275C1183.77,640.098 1182.32,641.546 1180.5,642.62C1178.68,643.695 1176.67,644.232 1174.49,644.232Z" style="fill-rule:nonzero;"/>
            </g>
            <g transform="matrix(1,0,0,1,-1152.45,-696)">
                <path d="M1174.49,644.232C1172.27,644.232 1170.25,643.695 1168.44,642.62C1166.63,641.546 1165.18,640.098 1164.09,638.275C1163.01,636.452 1162.46,634.439 1162.46,632.236C1162.46,630.023 1163.01,628.013 1164.09,626.206C1165.18,624.399 1166.63,622.954 1168.44,621.869C1170.25,620.783 1172.27,620.241 1174.49,620.241C1176.67,620.241 1178.68,620.783 1180.5,621.869C1182.32,622.954 1183.77,624.399 1184.85,626.206C1185.92,628.013 1186.46,630.023 1186.46,632.236C1186.46,634.439 1185.92,636.452 1184.85,638.275C1183.77,640.098 1182.32,641.546 1180.5,642.62C1178.68,643.695 1176.67,644.232 1174.49,644.232Z" style="fill-rule:nonzero;"/>
            </g>
            <g transform="matrix(1,0,0,1,-1109.79,-696)">
                <path d="M1177.19,648.811C1177.19,656.33 1172.7,662.63 1163.72,663.915L1144.15,666.497C1137.74,667.313 1134.54,671.684 1134.54,676.426L1134.54,679.176L1129.07,679.176L1129.07,676.426C1129.07,668.906 1133.56,662.592 1142.54,661.338L1162.11,658.723C1168.55,657.727 1171.78,653.607 1171.78,648.811L1171.78,646.06L1177.19,646.06L1177.19,648.811Z" style="fill-rule:nonzero;"/>
            </g>
            <g transform="matrix(1,0,0,1,-1109.79,-696)">
                <rect x="1129.1" y="637.773" width="5.4" height="46.061"/>
            </g>
        </g>
        <g id="Thin-S" transform="matrix(1,0,0,1,814.019,696)">
            <g transform="matrix(1,0,0,1,-814.019,-696)">
                <path d="M835.067,678.543C837.09,678.543 838.93,679.039 840.586,680.03C842.242,681.022 843.566,682.352 844.557,684.021C845.549,685.689 846.045,687.535 846.045,689.559C846.045,691.593 845.549,693.433 844.557,695.08C843.566,696.728 842.242,698.045 840.586,699.033C838.93,700.021 837.09,700.515 835.067,700.515C833.033,700.515 831.179,700.021 829.507,699.033C827.835,698.045 826.505,696.728 825.517,695.08C824.529,693.433 824.035,691.593 824.035,689.559C824.035,687.535 824.529,685.689 825.517,684.021C826.505,682.352 827.835,681.022 829.507,680.03C831.179,679.039 833.033,678.543 835.067,678.543Z" style="fill-rule:nonzero;"/>
            </g>
            <g transform="matrix(1,0,0,1,-814.019,-693)">
                <path d="M877.818,643.887C875.795,643.887 873.948,643.393 872.28,642.405C870.611,641.417 869.281,640.087 868.289,638.415C867.298,636.742 866.802,634.898 866.802,632.882C866.802,630.841 867.298,628.992 868.289,627.336C869.281,625.68 870.611,624.356 872.28,623.365C873.948,622.373 875.795,621.877 877.818,621.877C879.827,621.877 881.667,622.373 883.339,623.365C885.012,624.356 886.342,625.68 887.33,627.336C888.318,628.992 888.812,630.841 888.812,632.882C888.812,634.898 888.318,636.742 887.33,638.415C886.342,640.087 885.012,641.417 883.339,642.405C881.667,643.393 879.827,643.887 877.818,643.887Z" style="fill-rule:nonzero;"/>
            </g>
            <g transform="matrix(1,0,0,1,-856.786,-696)">
                <path d="M877.818,643.887C875.795,643.887 873.948,643.393 872.28,642.405C870.611,641.417 869.281,640.087 868.289,638.415C867.298,636.742 866.802,634.898 866.802,632.882C866.802,630.841 867.298,628.992 868.289,627.336C869.281,625.68 870.611,624.356 872.28,623.365C873.948,622.373 875.795,621.877 877.818,621.877C879.827,621.877 881.667,622.373 883.339,623.365C885.012,624.356 886.342,625.68 887.33,627.336C888.318,628.992 888.812,630.841 888.812,632.882C888.812,634.898 888.318,636.742 887.33,638.415C886.342,640.087 885.012,641.417 883.339,642.405C881.667,643.393 879.827,643.887 877.818,643.887Z" style="fill-rule:nonzero;"/>
            </g>
            <g transform="matrix(1,0,0,1,-814.019,-696)">
                <path d="M879.443,648.875C879.443,655.663 875.241,661.396 867.129,662.709L846.683,665.83C840.069,666.697 836.741,671.44 836.741,676.555L836.741,679.585L833.403,679.585L833.403,676.555C833.403,669.767 837.356,663.69 845.717,662.694L866.164,659.562C872.808,658.395 876.155,654.03 876.155,648.875L876.155,645.845L879.443,645.845L879.443,648.875Z" style="fill-rule:nonzero;"/>
            </g>
            <g transform="matrix(1,0,0,1,-814.019,-696)">
                <rect x="833.39" y="637.672" width="3.3" height="44.981"/>
            </g>
        </g>
        <g id="Ultralight-S" transform="matrix(1,0,0,1,517.786,696)">
            <g transform="matrix(1,0,0,1,-517.786,-696)">
                <path d="M538.348,678.818C540.269,678.818 542.019,679.29 543.597,680.234C545.176,681.178 546.438,682.448 547.382,684.043C548.326,685.638 548.798,687.396 548.798,689.316C548.798,691.27 548.326,693.027 547.382,694.59C546.438,696.152 545.176,697.406 543.597,698.35C542.019,699.294 540.269,699.766 538.348,699.766C536.395,699.766 534.621,699.294 533.026,698.35C531.431,697.406 530.162,696.152 529.218,694.59C528.274,693.027 527.802,691.27 527.802,689.316C527.802,687.396 528.274,685.638 529.218,684.043C530.162,682.448 531.431,681.178 533.026,680.234C534.621,679.29 536.395,678.818 538.348,678.818Z" style="fill-rule:nonzero;"/>
            </g>
            <g transform="matrix(1,0,0,1,-517.786,-693)">
                <path d="M581.122,643.711C579.201,643.711 577.444,643.239 575.848,642.295C574.253,641.351 572.984,640.081 572.04,638.486C571.096,636.891 570.624,635.134 570.624,633.213C570.624,631.26 571.096,629.494 572.04,627.915C572.984,626.336 574.253,625.075 575.848,624.131C577.444,623.187 579.201,622.715 581.122,622.715C583.042,622.715 584.8,623.187 586.395,624.131C587.99,625.075 589.26,626.336 590.204,627.915C591.148,629.494 591.62,631.26 591.62,633.213C591.62,635.134 591.148,636.891 590.204,638.486C589.26,640.081 587.99,641.351 586.395,642.295C584.8,643.239 583.042,643.711 581.122,643.711Z" style="fill-rule:nonzero;"/>
            </g>
            <g transform="matrix(1,0,0,1,-560.608,-696)">
                <path d="M581.122,643.711C579.201,643.711 577.444,643.239 575.848,642.295C574.253,641.351 572.984,640.081 572.04,638.486C571.096,636.891 570.624,635.134 570.624,633.213C570.624,631.26 571.096,629.494 572.04,627.915C572.984,626.336 574.253,625.075 575.848,624.131C577.444,623.187 579.201,622.715 581.122,622.715C583.042,622.715 584.8,623.187 586.395,624.131C587.99,625.075 589.26,626.336 590.204,627.915C591.148,629.494 591.62,631.26 591.62,633.213C591.62,635.134 591.148,636.891 590.204,638.486C589.26,640.081 587.99,641.351 586.395,642.295C584.8,643.239 583.042,643.711 581.122,643.711Z" style="fill-rule:nonzero;"/>
            </g>
            <g transform="matrix(1,0,0,1,-517.786,-696)">
                <path d="M582.196,648.908C582.196,655.321 578.174,660.75 570.477,662.092L549.579,665.488C542.728,666.686 539.471,671.315 539.471,676.621L539.471,679.795L537.225,679.795L537.225,676.621C537.225,670.208 541.253,664.466 548.944,663.389L569.843,659.992C576.589,658.767 579.999,654.247 579.999,648.908L579.999,645.734L582.196,645.734L582.196,648.908Z" style="fill-rule:nonzero;"/>
            </g>
            <g transform="matrix(1,0,0,1,-517.786,-696)">
                <rect x="537.3" y="638.433" width="2" height="43.036"/>
            </g>
        </g>
    </g>
</svg>
